<?xml version="1.0" encoding="UTF-8"?><svg xmlns="http://www.w3.org/2000/svg" width="100%" height="100%"><defs><font id="web" horiz-adv-x="757"><!--



NOTICE: This font software is the valuable property 
of Webtype LLC, The Font Bureau, Webtype and/or its 
suppliers and its use by you is covered under the terms 
of the Web Font license agreement between you and Webtype 
LLC. You may ONLY use this font software with the licensed 
web site. Except as specifically permitted by the license, 
you may not copy this font software. If you have any 
questions, please contact Webtype.com. 

For more information, please visit http://www.webtype.com/store/license/?id=23

Licensed to: jaegermeister.de

Serial number: SH-1059
--><font-face font-family="" units-per-em="2048" panose-1="2 0 6 6 3 0 0 2 0 4" ascent="1839" descent="-424" alphabetic="0"/><missing-glyph horiz-adv-x="1024" d="M0 0V1434H1024V0H0ZM922 1331H102V102H922V1331Z"/><glyph unicode=" " horiz-adv-x="307"/><glyph unicode="!" horiz-adv-x="553" d="M211 410L170 1024V1434H383V1024L342 410H211ZM168 0V217H385V0H168Z"/><glyph unicode="&quot;" horiz-adv-x="569" d="M334 1024V1434H518V1024H334ZM51 1024V1434H236V1024H51Z"/><glyph unicode="#" horiz-adv-x="819" d="M406 0L453 238H248L201 0H61L111 238H0V422H141L211 819H76V1004H244L285 1229H418L377 1004H586L629 1229H762L721 1004H819V819H692L621 422H748V238H590L545 0H406ZM555 819H346L276 422H485L555 819Z"/><glyph unicode="$" horiz-adv-x="819" d="M317 -205V0H307Q265 0 230 15T166 57Q137 85 120 123T102 205V358H307V236Q307 216 322 200T358 184H461Q481 184 496 200T512 236V399Q512 431 498 450T461 481L289 573Q247 595 213 618T154 670T116 737T102 829V1024Q102 1066 118 1102T162 1167Q190 1195 227 1212T307 1229H317V1434H502V1229H512Q555 1229 593 1212T659 1165Q685 1137 701 1102T717 1024V870H512V993Q512 1013 497 1028T461 1044H358Q338 1044 323 1029T307 993V850Q307 818 320 799T358 768L526 684Q568 663 603 640T663 585T703 514T717 420V205Q717 160 700 122T651 55Q623 29 588 15T512 0H502V-205H317Z"/><glyph unicode="%" horiz-adv-x="1147" d="M188 614Q162 614 139 624T98 651Q81 668 71 690T61 739V1104Q61 1129 70 1150T94 1188Q111 1206 136 1217T188 1229H344Q372 1229 396 1218T438 1188Q471 1152 471 1104V739Q471 713 461 691T434 651Q417 634 394 624T344 614H188ZM336 1073Q336 1087 325 1098T299 1110H236Q220 1110 209 1099T197 1073V772Q197 755 208 743T236 731H299Q313 731 324 743T336 772V1073ZM233 0L770 1229H895L358 0H233ZM803 0Q777 0 754 10T713 37Q696 54 686 76T676 125V489Q676 514 685 536T711 575Q745 614 803 614H958Q986 614 1011 603T1053 573Q1085 538 1085 489V125Q1085 99 1076 77T1049 37Q1032 20 1008 10T958 0H803ZM950 459Q950 473 939 484T913 496H850Q834 496 823 485T811 459V158Q811 141 822 129T850 117H913Q927 117 938 129T950 158V459Z"/><glyph unicode="&amp;" horiz-adv-x="879" d="M315 0Q275 0 240 14T176 55Q145 83 128 121T111 205V539Q111 581 126 616T166 678T222 721T287 739V750Q254 755 226 772T176 814T143 873T131 944V1229Q131 1271 146 1306T188 1370Q216 1399 254 1416T336 1434H541Q584 1434 622 1417T688 1370Q714 1342 729 1307T745 1229V1024H541V1198Q541 1218 525 1233T489 1249H387Q367 1249 352 1234T336 1198V881Q336 861 351 845T387 829H848V655H727Q735 649 740 639T745 614V205Q745 161 728 123T682 57Q654 31 619 16T541 0H315ZM541 655H418Q398 655 380 647T347 624T324 592T315 553V236Q315 216 331 200T367 184H489Q509 184 525 200T541 236V655Z"/><glyph unicode="'" horiz-adv-x="287" d="M51 1024V1434H236V1024H51Z"/><glyph unicode="(" horiz-adv-x="520" d="M348 -250Q282 -187 226 -103T129 87T64 319T41 590Q41 735 64 861T128 1094T226 1285T348 1434H520Q472 1365 427 1288T347 1112T291 888T270 594Q270 425 291 298T347 72T427 -104T520 -250H348Z"/><glyph unicode=")" horiz-adv-x="520" d="M0 -250Q48 -181 93 -104T173 72T229 298T250 594Q250 761 229 887T173 1112T93 1287T0 1434H172Q238 1371 294 1286T391 1094T456 862T479 590Q479 445 456 319T392 88T294 -102T172 -250H0Z"/><glyph unicode="*" horiz-adv-x="823" d="M578 756L408 926L244 756L156 821L266 1032L57 1139L92 1241L319 1204L356 1434H465L506 1204L733 1237L766 1139L553 1032L666 821L578 756Z"/><glyph unicode="+" horiz-adv-x="819" d="M324 256V557H27V725H324V1024H500V725H795V557H500V256H324Z"/><glyph unicode="," horiz-adv-x="328" d="M55 -131Q87 -131 107 -128T138 -117T154 -94T158 -57V0H100Q55 0 55 47V217H272V-82Q272 -167 215 -204T55 -242V-131Z"/><glyph unicode="-" horiz-adv-x="512" d="M82 449V657H430V449H82Z"/><glyph unicode="." horiz-adv-x="328" d="M55 0V217H272V0H55Z"/><glyph unicode="/" horiz-adv-x="819" d="M0 -248L614 1434H819L205 -248H0Z"/><glyph unicode="0" horiz-adv-x="819" d="M307 0Q265 0 230 15T166 57Q137 85 120 123T102 205V1024Q102 1067 119 1104T164 1169Q192 1197 228 1213T307 1229H512Q555 1229 592 1213T657 1167Q685 1139 701 1103T717 1024V205Q717 161 700 123T653 57Q625 31 590 16T512 0H307ZM512 993Q512 1013 497 1028T461 1044H358Q338 1044 323 1029T307 993V236Q307 216 322 200T358 184H461Q481 184 496 200T512 236V993Z"/><glyph unicode="1" horiz-adv-x="594" d="M225 0V1044H70V1229H430V0H225Z"/><glyph unicode="2" horiz-adv-x="819" d="M102 0V297Q102 351 120 393T168 469T234 532T309 588L461 696Q476 707 494 734T512 799V993Q512 1013 497 1028T461 1044H358Q338 1044 323 1029T307 993V819H102V1024Q102 1066 118 1102T162 1167Q190 1195 227 1212T307 1229H512Q555 1229 593 1212T659 1165Q685 1137 701 1102T717 1024V768Q717 714 700 674T653 602T588 541T514 485L358 369Q343 356 325 330T307 266V184H717V0H102Z"/><glyph unicode="3" horiz-adv-x="819" d="M297 0Q255 0 220 15T156 57Q127 85 110 123T92 205V287H297V236Q297 216 312 200T348 184H471Q491 184 506 200T522 236V440Q522 460 514 478T491 511T459 534T420 543H295V727H451Q471 727 486 742T502 778V993Q502 1013 487 1028T451 1044H348Q328 1044 313 1029T297 993V922H92V1024Q92 1066 108 1102T152 1167Q179 1195 216 1212T297 1229H502Q545 1229 582 1213T647 1167Q675 1139 691 1103T707 1024V842Q707 804 695 771T662 713T613 670T551 647V637Q584 635 615 619T672 577T712 514T727 436V205Q727 161 710 123T664 57Q636 31 600 16T522 0H297Z"/><glyph unicode="4" horiz-adv-x="819" d="M436 0V238H20V397L436 1229H641V422H778V238H641V0H436ZM436 926L184 422H436V926Z"/><glyph unicode="5" horiz-adv-x="819" d="M317 0Q275 0 240 15T176 57Q147 85 130 123T113 205V287H317V236Q317 216 333 200T369 184H471Q491 184 506 200T522 236V543Q522 563 507 578T471 594H369Q349 594 333 579T317 543H113V1229H707V1044H297V711Q303 729 315 741Q332 760 356 770T399 780H522Q566 780 603 764T668 719Q696 691 711 654T727 575V205Q727 161 710 123T664 57Q636 31 600 16T522 0H317Z"/><glyph unicode="6" horiz-adv-x="819" d="M307 0Q265 0 230 15T166 57Q137 85 120 123T102 205V1024Q102 1066 118 1102T162 1167Q190 1195 227 1212T307 1229H512Q555 1229 592 1212T657 1167Q685 1139 701 1103T717 1024V922H512V993Q512 1013 497 1028T461 1044H358Q338 1044 323 1029T307 993V698Q313 717 326 729Q343 748 367 758T410 768H512Q555 768 593 751T659 705Q685 677 701 641T717 563V205Q717 161 700 123T653 57Q625 31 590 16T512 0H307ZM512 532Q512 552 497 568T461 584H358Q338 584 323 568T307 532V236Q307 216 322 200T358 184H461Q481 184 496 200T512 236V532Z"/><glyph unicode="7" horiz-adv-x="819" d="M205 0V395Q205 449 226 498T279 591T347 674T412 750L428 770Q434 777 448 796T476 840T501 891T512 936V1044H123V1229H717V905Q717 851 696 804T643 715T576 635T512 559L496 541Q490 533 476 514T447 470T421 420T410 375V0H205Z"/><glyph unicode="8" horiz-adv-x="819" d="M297 0Q255 0 220 15T156 57Q127 85 110 123T92 205V436Q92 478 107 514T147 576T203 619T268 637V647Q235 653 205 670T152 712T116 771T102 842V1024Q102 1066 118 1102T162 1167Q190 1195 227 1212T307 1229H512Q555 1229 592 1212T657 1167Q685 1139 701 1103T717 1024V842Q717 804 704 771T667 713T614 670T551 647V637Q584 635 615 619T672 577T712 514T727 436V205Q727 161 710 123T664 57Q636 31 600 16T522 0H297ZM512 993Q512 1013 497 1028T461 1044H358Q338 1044 323 1029T307 993V778Q307 758 322 743T358 727H461Q481 727 496 742T512 778V993ZM522 487Q522 510 507 526T471 543H348Q328 543 313 528T297 492V236Q297 216 312 200T348 184H471Q491 184 506 200T522 236V487Z"/><glyph unicode="9" horiz-adv-x="819" d="M307 0Q264 0 227 17T162 61Q134 89 118 126T102 205V287H307V236Q307 216 322 200T358 184H461Q481 184 496 200T512 236V530Q506 512 494 500Q477 481 453 471T410 461H307Q264 461 226 478T160 524Q134 552 118 588T102 666V1024Q102 1067 119 1105T166 1171Q194 1197 229 1213T307 1229H512Q554 1229 589 1213T653 1171Q682 1144 699 1106T717 1024V205Q717 163 701 126T657 61Q630 34 593 17T512 0H307ZM512 993Q512 1013 497 1028T461 1044H358Q338 1044 323 1029T307 993V696Q307 676 322 661T358 645H461Q481 645 496 660T512 696V993Z"/><glyph unicode=":" horiz-adv-x="442" d="M113 807V1024H330V807H113ZM113 0V217H330V0H113Z"/><glyph unicode=";" horiz-adv-x="442" d="M113 807V1024H330V807H113ZM113 -131Q145 -131 165 -128T196 -117T211 -94T215 -57V0H158Q113 0 113 47V217H330V-82Q330 -167 273 -204T113 -242V-131Z"/><glyph unicode="&lt;" horiz-adv-x="819" d="M53 571V682L768 1022V834L311 639L266 629L311 616L768 422V236L53 571Z"/><glyph unicode="=" horiz-adv-x="819" d="M53 709V877H768V709H53ZM53 377V545H768V377H53Z"/><glyph unicode="&gt;" horiz-adv-x="819" d="M53 236V422L510 616L555 629L510 639L53 834V1022L768 682V571L53 236Z"/><glyph unicode="?" horiz-adv-x="788" d="M266 410V582Q266 638 283 679T326 752T382 811T438 868T481 933T498 1016V1198Q498 1218 482 1233T446 1249H344Q324 1249 309 1234T293 1198V1024H88V1229Q88 1271 104 1307T147 1372Q175 1400 212 1417T293 1434H498Q541 1434 579 1417T645 1370Q671 1342 686 1307T702 1229V973Q702 922 684 883T639 811T581 750T522 695T477 637T459 571V410H266ZM260 0V217H477V0H260Z"/><glyph unicode="@" horiz-adv-x="1622" d="M1309 -25Q1268 -66 1220 -98T1111 -154T977 -190T811 -203Q669 -203 562 -174T376 -94T245 23T162 164T117 314T104 461V618Q104 714 122 811T179 1000T275 1170T414 1309T597 1402T825 1436Q953 1436 1054 1414T1233 1351T1365 1257T1454 1137T1504 1000T1520 854V748Q1520 643 1502 562T1452 421T1379 319T1292 253T1200 216T1112 205Q1055 205 1012 216T938 256Q921 273 908 297T885 356Q862 321 837 294T781 246T714 216T631 205Q589 205 554 222T492 273T451 352T436 455Q436 460 436 476T438 512T441 553T446 590L473 741Q484 801 510 858T580 963Q620 1005 673 1032T795 1059Q855 1059 900 1027T975 936L995 1051H1176L1077 498Q1072 476 1069 455T1065 416Q1065 390 1081 369T1139 348Q1171 348 1209 369T1279 439T1334 569T1356 772V854Q1356 945 1325 1023T1228 1158T1062 1247T823 1280Q684 1280 581 1227T409 1083T306 870T272 610V471Q272 357 305 262T406 98T576 -9T815 -47Q895 -47 952 -39T1050 -15T1122 21T1178 66L1194 80L1325 -6L1309 -25ZM922 696Q925 712 927 728T930 760Q930 822 902 852T823 883Q788 883 760 874T711 842Q688 819 673 778T647 678L629 584Q624 561 621 539T618 498Q618 438 645 413T727 387Q760 387 788 398T837 428T872 473T891 530L922 696Z"/><glyph unicode="A" horiz-adv-x="782" d="M545 0L512 225H268L238 0H25L279 1434H504L758 0H545ZM414 922L397 1122H385L369 922L295 410H485L414 922Z"/><glyph unicode="B" horiz-adv-x="901" d="M139 0V1434H569Q613 1434 651 1417T717 1370Q743 1342 758 1307T774 1229V944Q774 906 762 873T729 815T680 772T618 750V739Q651 737 683 721T740 679T780 617T795 539V205Q795 161 778 123T731 57Q703 31 668 16T590 0H139ZM569 1198Q569 1218 554 1233T518 1249H344V829H518Q538 829 553 845T569 881V1198ZM590 543Q590 563 582 581T559 614T526 636T487 645H344V184H539Q559 184 574 200T590 236V543Z"/><glyph unicode="C" horiz-adv-x="819" d="M322 0Q281 0 246 14T182 55Q153 83 135 121T117 205V1229Q117 1271 132 1306T174 1370Q202 1399 240 1416T322 1434H547Q590 1434 628 1417T694 1370Q720 1342 736 1307T752 1229V1024H547V1198Q547 1218 532 1233T496 1249H373Q353 1249 338 1234T322 1198V236Q322 216 337 200T373 184H496Q516 184 531 200T547 236V410H752V205Q752 161 735 123T688 57Q660 31 625 16T547 0H322Z"/><glyph unicode="D" horiz-adv-x="891" d="M139 0V1434H569Q613 1434 651 1417T717 1370Q743 1342 758 1307T774 1229V205Q774 160 757 121T709 53Q681 28 646 14T569 0H139ZM569 1198Q569 1218 554 1233T518 1249H344V184H518Q538 184 553 200T569 236V1198Z"/><glyph unicode="E" horiz-adv-x="717" d="M139 0V1434H651V1249H344V829H594V645H344V184H651V0H139Z"/><glyph unicode="F" horiz-adv-x="688" d="M139 0V1434H651V1249H344V829H594V645H344V0H139Z"/><glyph unicode="G" horiz-adv-x="864" d="M322 0Q280 0 244 15T180 57Q151 85 134 123T117 205V1229Q117 1271 132 1307T176 1372Q204 1400 241 1417T322 1434H547Q592 1434 630 1417T696 1368Q722 1340 737 1305T752 1229V1024H547V1198Q547 1218 532 1233T496 1249H373Q353 1249 338 1234T322 1198V236Q322 216 337 200T373 184H496Q516 184 531 200T547 236V635H424V819H752V205Q752 160 735 121T686 53Q658 28 623 14T547 0H322Z"/><glyph unicode="H" horiz-adv-x="913" d="M569 0V645H344V0H139V1434H344V829H569V1434H774V0H569Z"/><glyph unicode="I" horiz-adv-x="483" d="M139 0V1434H344V0H139Z"/><glyph unicode="J" horiz-adv-x="760" d="M229 0Q187 0 152 15T88 57Q59 85 42 123T25 205V410H229V236Q229 216 245 200T281 184H383Q403 184 418 200T434 236V1434H639V205Q639 161 622 123T575 57Q548 31 512 16T434 0H229Z"/><glyph unicode="K" horiz-adv-x="889" d="M653 0L418 625L344 487V0H139V1434H344V778H352L655 1434H889L555 813L889 0H653Z"/><glyph unicode="L" horiz-adv-x="662" d="M139 0V1434H344V184H651V0H139Z"/><glyph unicode="M" horiz-adv-x="1212" d="M887 0V748L903 1069H891L817 721L690 205H522L395 721L322 1069H309L326 748V0H139V1434H399L565 756L596 545H616L647 756L813 1434H1073V0H887Z"/><glyph unicode="N" horiz-adv-x="977" d="M633 0L371 819L322 1024H309L344 442V0H139V1434H344L608 614L655 410H670L633 995V1434H838V0H633Z"/><glyph unicode="O" horiz-adv-x="868" d="M322 0Q278 0 242 16T176 61Q148 89 133 125T117 205V1229Q117 1272 132 1308T176 1372Q205 1401 241 1417T322 1434H547Q592 1434 627 1418T690 1374Q719 1346 735 1310T752 1229V205Q752 160 736 125T692 61Q664 32 628 16T547 0H322ZM547 1198Q547 1218 532 1233T496 1249H373Q353 1249 338 1234T322 1198V236Q322 216 337 200T373 184H496Q517 184 532 200T547 236V1198Z"/><glyph unicode="P" horiz-adv-x="840" d="M139 0V1434H571Q612 1434 649 1418T715 1374Q743 1346 758 1309T774 1229V850Q774 807 759 771T715 705Q686 677 650 661T569 645H344V0H139ZM569 1198Q569 1218 554 1233T518 1249H344V829H516Q536 829 551 845T569 883V1198Z"/><glyph unicode="Q" horiz-adv-x="868" d="M596 -201L483 0H322Q278 0 242 16T176 61Q148 89 133 125T117 205V1229Q117 1272 132 1308T176 1372Q205 1401 241 1417T322 1434H547Q592 1434 627 1418T690 1374Q719 1346 735 1310T752 1229V205Q752 157 730 114T670 43L809 -201H596ZM547 1198Q547 1218 532 1233T496 1249H373Q353 1249 338 1234T322 1198V236Q322 216 337 200T373 184H496Q516 184 531 198T547 233V1198Z"/><glyph unicode="R" horiz-adv-x="901" d="M616 0L446 645H344V0H139V1434H571Q612 1434 649 1418T715 1374Q743 1346 758 1309T774 1229V883Q774 836 758 801T717 739Q700 724 681 712T641 694L831 0H616ZM569 1198Q569 1218 554 1233T518 1249H344V829H516Q536 829 551 845T569 883V1198Z"/><glyph unicode="S" horiz-adv-x="823" d="M299 0Q254 0 219 16T156 59Q127 87 111 123T94 205V410H299V236Q299 216 314 200T350 184H473Q493 184 508 200T524 236V473Q524 510 507 536T473 573L297 690Q258 716 222 743T157 803T111 877T94 971V1229Q94 1274 110 1310T156 1374Q184 1402 219 1418T299 1434H524Q568 1434 604 1418T670 1372Q698 1344 713 1308T729 1229V1024H524V1198Q524 1218 509 1233T473 1249H350Q330 1249 315 1234T299 1198V1004Q299 965 315 940T350 901L522 793Q562 767 599 738T665 675T711 598T729 502V205Q729 161 714 125T670 61Q641 32 605 16T524 0H299Z"/><glyph unicode="T" horiz-adv-x="655" d="M225 0V1249H20V1434H635V1249H430V0H225Z"/><glyph unicode="U" horiz-adv-x="897" d="M336 0Q293 0 256 16T190 61Q163 89 147 125T131 205V1434H336V236Q336 216 351 200T387 184H510Q529 184 545 198T561 233V1434H766V205Q766 160 750 125T707 61Q679 32 643 16T561 0H336Z"/><glyph unicode="V" horiz-adv-x="782" d="M279 0L25 1434H244L375 512L391 311H403L420 512L551 1434H758L504 0H279Z"/><glyph unicode="W" horiz-adv-x="1212" d="M743 0L631 842L614 1042H602L586 842L469 0H264L39 1434H254L352 573L362 373H375L397 573L504 1434H707L815 573L838 373H850L860 573L958 1434H1174L948 0H743Z"/><glyph unicode="X" horiz-adv-x="766" d="M551 0L426 358L385 504H373L332 358L207 0H10L283 739L27 1434H231L344 1106L381 975H393L428 1106L543 1434H739L483 739L756 0H551Z"/><glyph unicode="Y" horiz-adv-x="700" d="M248 0V647L-6 1434H201L313 1014L350 883H362L397 1014L512 1434H707L453 645V0H248Z"/><glyph unicode="Z" horiz-adv-x="696" d="M41 0V172L451 1249H41V1434H655V1262L246 184H655V0H41Z"/><glyph unicode="[" horiz-adv-x="563" d="M154 -248V1434H512V1286H358V-102H512V-248H154Z"/><glyph unicode="\" horiz-adv-x="819" d="M614 -248L0 1434H205L819 -248H614Z"/><glyph unicode="]" horiz-adv-x="563" d="M51 -248V-102H205V1286H51V1434H410V-248H51Z"/><glyph unicode="^" horiz-adv-x="819" d="M618 629L428 975L410 1018L389 975L201 629H16L352 1243H463L805 629H618Z"/><glyph unicode="_" horiz-adv-x="614" d="M-10 -410V-242H625V-410H-10Z"/><glyph unicode="`" horiz-adv-x="819" d="M362 1143L164 1434H369L532 1143H362Z"/><glyph unicode="a" horiz-adv-x="813" d="M524 0V84Q515 66 496 47Q476 29 452 15T406 0H299Q254 0 219 16T156 59Q127 87 111 123T94 205V389Q94 432 110 469T156 535Q184 562 219 578T299 594H504V788Q504 807 489 822T453 840H350Q330 840 315 824T299 788V717H94V819Q94 863 110 899T156 963Q184 992 220 1008T299 1024H504Q547 1024 583 1007T649 963Q677 935 693 898T709 817V0H524ZM504 430H348Q331 430 313 414Q307 406 303 397T299 379V233Q299 213 314 199T350 184H453Q473 184 488 200T504 236V430Z"/><glyph unicode="b" horiz-adv-x="821" d="M518 791Q516 811 501 825T467 840H365Q345 840 329 824T313 788V233Q313 213 328 199T365 184H467Q487 184 502 200T518 236V791ZM412 0Q392 0 368 13T324 45Q313 54 306 64T293 84V0H109V1434H313V942Q316 956 323 967T340 987Q357 1004 378 1014T416 1024H516Q561 1024 597 1008T662 963Q691 935 707 899T723 819V205Q723 160 707 125T664 61Q635 32 598 16T518 0H412Z"/><glyph unicode="c" horiz-adv-x="776" d="M303 0Q260 0 224 16T160 61Q131 89 115 125T98 205V819Q98 864 114 900T160 965Q188 992 224 1008T303 1024H508Q551 1024 587 1008T651 965Q680 937 696 901T713 819V717H508V788Q508 808 493 824T457 840H354Q334 840 319 824T303 788V236Q303 216 318 201T354 184H457Q477 186 491 201T508 236V307H713V205Q713 161 697 125T651 61Q623 32 587 16T506 0H303Z"/><glyph unicode="d" horiz-adv-x="817" d="M508 788Q508 808 493 824T457 840H354Q334 840 319 824T303 788V236Q303 216 318 201T354 184H457Q477 186 491 201T508 236V788ZM526 0V84Q521 75 514 65T498 45Q479 26 454 13T408 0H303Q260 0 224 16T160 61Q131 89 115 125T98 205V819Q98 864 114 900T160 965Q188 992 224 1008T303 1024H406Q423 1024 442 1015T479 989Q489 980 497 968T508 942V1434H713V0H526Z"/><glyph unicode="e" horiz-adv-x="811" d="M303 0Q260 0 224 16T160 61Q131 89 115 125T98 205V819Q98 864 114 900T160 965Q188 992 224 1008T303 1024H508Q551 1024 587 1008T651 965Q680 937 696 901T713 819V430H303V236Q303 216 318 201T354 184H457Q477 186 491 201T508 236V307H713V205Q713 161 697 125T651 61Q623 32 587 16T506 0H303ZM508 788Q508 808 493 824T457 840H354Q334 840 319 824T303 788V594H508V788Z"/><glyph unicode="f" horiz-adv-x="532" d="M141 0V840H39V1024H141V1229Q141 1272 158 1308T203 1372Q231 1401 267 1418T346 1434H520V1249H397Q377 1249 362 1234T346 1198V1024H520V840H346V0H141Z"/><glyph unicode="g" horiz-adv-x="803" d="M299 -410Q259 -410 222 -394T156 -350Q128 -322 111 -285T94 -205V-102H299V-174Q299 -194 314 -209T350 -225H473Q493 -225 508 -210T524 -174V-51Q524 -33 510 -17T473 0H225Q170 0 135 35Q115 53 105 78T94 131V190Q94 214 102 235T126 274T161 302T205 317Q154 345 124 393T94 500V819Q94 859 110 896T152 961Q179 990 217 1007T299 1024H442V1059Q442 1137 487 1184Q513 1212 551 1227T637 1243H709V1055H641Q621 1055 609 1042T594 1010Q594 1007 598 1001Q613 993 626 984T651 961Q679 933 694 896T709 819V500Q709 456 693 420T649 356Q620 328 584 312T504 295H324Q313 295 301 283T289 244V233Q289 210 304 197T340 184H524Q568 184 606 167T672 121Q698 93 713 58T729 -20V-205Q729 -248 712 -286T666 -352Q638 -380 602 -395T524 -410H299ZM514 788Q514 808 499 824T463 840H338Q319 840 304 824T289 788V530Q289 510 304 495T340 479H463Q485 479 499 494T514 532V788Z"/><glyph unicode="h" horiz-adv-x="827" d="M518 0V788Q516 808 501 824T467 840H365Q345 840 329 824T313 788V0H109V1434H313V942Q316 956 323 967T340 987Q357 1004 378 1014T416 1024H516Q561 1024 597 1008T662 963Q691 935 707 899T723 819V0H518Z"/><glyph unicode="i" horiz-adv-x="422" d="M109 1229V1434H313V1229H109ZM109 0V1024H313V0H109Z"/><glyph unicode="j" horiz-adv-x="432" d="M119 1229V1434H324V1229H119ZM0 -410V-225H68Q88 -225 103 -210T119 -174V1024H324V-205Q324 -248 307 -284T262 -348Q234 -377 198 -393T119 -410H0Z"/><glyph unicode="k" horiz-adv-x="817" d="M575 0L369 455L313 381V0H109V1434H313V610H322L596 1024H819L522 621L819 0H575Z"/><glyph unicode="l" horiz-adv-x="455" d="M301 0Q258 0 222 16T156 61Q128 89 112 125T96 205V1434H301V236Q301 225 306 215T319 197Q326 190 335 187T354 184H444V0H301Z"/><glyph unicode="m" horiz-adv-x="1206" d="M907 0V788Q907 808 893 824T856 840H764Q744 838 730 823T713 788V0H508V788Q508 808 493 824T457 840H365Q345 840 329 824T313 788V0H109V1024H293V942Q299 956 312 970T343 997T379 1016T414 1024H532Q547 1024 565 1017T599 997T629 971T651 942Q658 956 671 970T701 997T735 1016T768 1024H897Q940 1024 976 1008T1040 963Q1069 935 1085 899T1102 819V0H907Z"/><glyph unicode="n" horiz-adv-x="827" d="M518 0V788Q516 808 501 824T467 840H365Q345 840 329 824T313 788V0H109V1024H293V942Q296 950 302 958T317 975Q337 995 364 1009T414 1024H516Q561 1024 597 1008T662 963Q691 935 707 899T723 819V0H518Z"/><glyph unicode="o" horiz-adv-x="811" d="M303 0Q260 0 224 16T160 59Q131 88 115 124T98 205V817Q98 860 114 897T160 963Q188 990 224 1006T303 1022H508Q551 1022 587 1006T651 963Q680 934 696 897T713 817V205Q713 161 697 125T653 61Q625 34 588 17T508 0H303ZM508 786Q508 806 493 822T457 838H354Q334 838 319 822T303 786V236Q303 216 318 200T354 184H457Q477 184 492 200T508 236V786Z"/><glyph unicode="p" horiz-adv-x="821" d="M109 -410V1024H293V942Q296 956 303 967T319 987Q336 1004 356 1014T393 1024H518Q561 1024 597 1008T662 965Q691 937 707 901T723 819V205Q723 161 707 125T662 61Q634 32 598 16T518 0H432Q410 0 386 13T342 45Q323 64 313 84V-410H109ZM518 788Q518 808 503 824T467 840H365Q345 840 329 824T313 788V236Q315 216 330 201T365 184H467Q487 186 502 201T518 236V788Z"/><glyph unicode="q" horiz-adv-x="821" d="M508 -410V84Q503 75 496 65T479 45Q461 26 436 13T389 0H303Q260 0 224 16T160 61Q131 89 115 125T98 205V819Q98 864 114 900T160 965Q188 992 224 1008T303 1024H428Q445 1024 465 1014T502 987Q511 978 518 967T528 942V1024H713V-410H508ZM508 788Q508 808 493 824T457 840H354Q334 840 319 824T303 788V236Q303 216 318 201T354 184H457Q477 186 491 201T508 236V788Z"/><glyph unicode="r" horiz-adv-x="573" d="M109 0V1024H293V885Q307 908 323 931T360 977Q382 997 406 1010T461 1024H551V821H416Q397 820 378 812T344 789T320 757T313 717V0H109Z"/><glyph unicode="s" horiz-adv-x="786" d="M289 0Q249 0 213 16T147 61Q120 89 103 125T86 205V307H291V233Q291 215 306 200T342 184H444Q464 184 480 200T496 236V328Q496 356 484 367T444 389L258 457Q212 474 180 491T126 534T96 596T86 686V819Q86 863 102 899T145 963Q174 992 210 1008T291 1024H498Q543 1024 577 1008T641 965Q669 937 684 901T700 819V717H498V791Q498 812 482 826T444 840H342Q322 840 307 824T291 788V696Q291 670 300 658T342 635L524 575Q570 561 603 542T658 496T690 430T700 338V205Q700 161 685 125T641 61Q612 32 576 16T496 0H289Z"/><glyph unicode="t" horiz-adv-x="549" d="M342 0Q299 0 263 16T199 59Q170 87 153 123T135 205V840H25V1024H137V1229H344V1024H506V840H342V236Q342 216 357 200T393 184H506V0H342Z"/><glyph unicode="u" horiz-adv-x="827" d="M537 0V84Q532 75 525 67T508 49Q488 29 463 15T418 0H309Q266 0 230 16T166 61Q137 89 121 125T104 205V1024H309V236Q309 216 324 200T360 184H463Q483 186 498 201T514 236V1024H719V0H537Z"/><glyph unicode="v" horiz-adv-x="782" d="M289 0L12 1024H244L360 496L391 295H403L436 498L553 1024H768L492 0H289Z"/><glyph unicode="w" horiz-adv-x="1217" d="M754 0L641 596L616 797H606L580 596L467 0H266L43 1024H256L344 512L362 311H379L408 512L506 1024H709L809 512L838 311H852L872 512L961 1024H1174L950 0H754Z"/><glyph unicode="x" horiz-adv-x="741" d="M526 0L369 377H365L207 0H-12L262 535L4 1024H231L373 692H377L516 1024H737L479 535L760 0H526Z"/><glyph unicode="y" horiz-adv-x="801" d="M82 -410V-217H188Q205 -217 219 -210T245 -190T264 -162T276 -131L299 -37L2 1024H236L367 436L399 236H412L442 436L569 1024H788L475 -160Q463 -206 438 -248T379 -324Q342 -362 293 -386T199 -410H82Z"/><glyph unicode="z" horiz-adv-x="700" d="M43 0V172L432 840H43V1024H657V852L268 184H657V0H43Z"/><glyph unicode="{" horiz-adv-x="666" d="M504 -248Q439 -248 385 -231T292 -182T232 -102T209 8Q209 22 209 37T213 68L260 377Q262 388 263 399T264 422Q264 464 247 491T184 518H70V688H184Q229 688 246 716T264 786Q264 797 263 808T260 831L213 1118Q210 1134 210 1149T209 1178Q209 1239 230 1286T291 1367T384 1417T504 1434H614V1288H520Q466 1288 436 1262T406 1184Q406 1174 407 1165T410 1145L469 803V793Q469 762 446 739L324 608V604L446 473Q469 452 469 420V410L410 41Q408 32 408 23T408 6Q408 -102 520 -102H614V-248H504Z"/><glyph unicode="|" horiz-adv-x="614" d="M205 -348V1823H410V-348H205Z"/><glyph unicode="}" horiz-adv-x="666" d="M51 -248V-102H145Q258 -102 258 6Q258 14 258 23T256 41L197 410V420Q197 451 219 473L342 604V608L219 739Q197 763 197 793V803L256 1145Q258 1156 259 1165T260 1184Q260 1236 230 1262T145 1288H51V1434H162Q227 1434 281 1417T375 1367T435 1287T457 1178Q457 1164 457 1149T453 1118L406 831Q401 808 401 786Q401 745 419 717T481 688H596V518H481Q437 518 419 491T401 422Q401 400 406 377L453 68Q456 52 456 37T457 8Q456 -54 435 -101T374 -181T281 -231T162 -248H51Z"/><glyph unicode="~" horiz-adv-x="819" d="M385 543Q359 557 340 565T307 573Q287 573 265 551T209 481L66 567Q100 625 129 663T187 723T244 755T305 764Q333 764 359 757T408 737L434 723Q460 709 479 701T512 692Q532 692 554 715T610 784L754 698Q720 641 690 603T632 543T574 511T514 502Q486 502 461 509T412 528L385 543Z"/><glyph unicode=" " horiz-adv-x="307"/><glyph unicode="¡" horiz-adv-x="553" d="M168 807V1024H385V807H168ZM170 -410V0L211 614H342L383 0V-410H170Z"/><glyph unicode="¢" horiz-adv-x="819" d="M317 -205V0H305Q262 0 227 16T164 59Q136 87 119 123T102 205V819Q102 863 119 899T164 963Q192 992 228 1008T309 1024H317V1229H502V1024H512Q555 1024 591 1008T655 963Q684 935 700 899T717 819V717H512V788Q512 808 497 824T461 840H358Q338 838 323 823T307 788V236Q307 216 322 200T358 184H461Q481 182 496 197T512 233V307H717V205Q717 160 701 125T657 61Q630 32 594 16T512 0H502V-205H317Z"/><glyph unicode="£" horiz-adv-x="819" d="M143 0V483H0V647H143V1024Q143 1067 159 1103T205 1169Q233 1197 269 1213T348 1229H553Q596 1229 632 1213T696 1169Q725 1140 741 1104T758 1024V819H553V993Q553 1013 538 1028T502 1044H399Q379 1042 364 1028T348 993V647H614V483H348V184H758V0H143Z"/><glyph unicode="¤" horiz-adv-x="1024" d="M614 891Q614 911 599 926T563 942H461Q441 942 426 927T410 891V338Q410 318 425 303T461 287H563Q583 287 598 302T614 338V891ZM717 -102L598 102H426L307 -102L147 -10L254 174Q231 200 218 234T205 307V922Q205 960 218 994T254 1055L147 1239L307 1331L426 1126H598L717 1331L877 1239L770 1055Q793 1029 806 995T819 922V307Q819 269 806 235T770 174L877 -10L717 -102Z"/><glyph unicode="¥" horiz-adv-x="819" d="M307 0V238H102V401H307V545H102V709H254L53 1229H254L367 911L403 780H416L451 911L565 1229H766L565 709H717V545H512V401H717V238H512V0H307Z"/><glyph unicode="¦" horiz-adv-x="614" d="M205 819V1638H410V819H205ZM205 -205V614H410V-205H205Z"/><glyph unicode="§" horiz-adv-x="819" d="M307 -242Q265 -242 230 -227T166 -186Q137 -159 120 -120T102 -37V66H307V-6Q307 -26 322 -41T358 -57H461Q481 -57 496 -42T512 -6V86Q512 114 501 125T461 147L274 215Q228 232 196 249T142 292T112 354T102 444V578Q102 620 121 656T166 721Q137 747 120 786T102 891V1024Q102 1066 118 1101T160 1165Q188 1194 226 1211T307 1229H512Q557 1229 595 1211T662 1163Q688 1135 702 1100T717 1024V922H512V993Q512 1013 497 1028T461 1044H358Q338 1044 323 1029T307 993V901Q307 875 316 863T358 840L541 782Q587 767 620 748T675 702T707 636T717 543V410Q717 369 699 334T655 270Q683 241 700 200T717 96V-37Q717 -80 700 -118T653 -184Q625 -210 590 -226T512 -242H307ZM512 547Q512 567 497 579T461 598L358 629Q348 632 339 628T323 616T312 598T307 578V440Q307 420 322 408T358 389L461 358Q471 355 480 359T496 371T507 389T512 410V547Z"/><glyph unicode="¨" horiz-adv-x="819" d="M461 1229V1434H666V1229H461ZM154 1229V1434H358V1229H154Z"/><glyph unicode="©" horiz-adv-x="1352" d="M1249 506Q1249 452 1235 392T1192 274T1117 162T1008 69T862 4T676 -20Q574 -20 492 4T345 68T235 162T160 273T116 392T102 506V723Q102 777 116 836T159 954T235 1066T345 1160T491 1225T676 1249Q779 1249 861 1225T1007 1161T1116 1067T1191 955T1235 837T1249 723V506ZM1124 723Q1124 770 1113 819T1079 914T1019 1001T933 1072T819 1121T676 1139Q597 1139 533 1121T418 1073T332 1002T273 915T238 819T227 723V506Q227 435 252 361T332 226T472 127T676 88Q795 88 880 126T1019 226T1098 361T1124 506V723ZM584 256Q552 256 523 267T471 301Q420 349 420 420V809Q420 841 431 869T463 920Q486 944 517 958T584 973H768Q803 973 833 960T887 922Q907 900 919 871T932 809V727H768V784Q768 800 756 812T727 825H625Q609 825 597 813T584 784V444Q584 429 596 416T625 403H727Q743 403 755 416T768 444V502H932V420Q932 385 919 355T881 301Q859 279 830 268T768 256H584Z"/><glyph unicode="ª" horiz-adv-x="555" d="M483 512H360V545Q346 531 330 522T299 512H199Q173 512 150 522T109 549Q92 566 82 588T72 635V815Q72 838 80 859T104 897Q121 916 146 927T199 938H348V1073Q348 1087 337 1098T311 1110H246Q230 1110 219 1099T207 1073V1038H72V1104Q72 1154 106 1190Q123 1208 148 1218T199 1229H356Q384 1229 408 1218T449 1188Q464 1171 473 1150T483 1104V512ZM246 829Q229 829 217 817Q207 807 207 793V666Q207 652 218 641T246 629H311Q325 629 336 640T348 666V829H246Z"/><glyph unicode="«" horiz-adv-x="801" d="M238 264L76 481V582L238 799H420L266 549L250 532L266 516L420 264H238ZM573 264L412 481V582L573 799H756L602 549L586 532L602 516L756 264H573Z"/><glyph unicode="¬" horiz-adv-x="819" d="M596 299V557H41V725H770V299H596Z"/><glyph unicode="®" horiz-adv-x="899" d="M817 1001Q817 950 797 893T732 786T618 705T449 672Q350 672 281 704T167 786T103 892T82 1001V1126Q82 1176 102 1234T167 1341T280 1423T449 1456Q548 1456 618 1424T732 1342T796 1234T817 1126V1001ZM731 1126Q731 1170 715 1215T665 1297T577 1357T449 1380Q375 1380 322 1357T235 1297T184 1215T168 1126V1001Q168 957 184 912T234 830T322 769T449 745Q523 745 576 768T664 829T715 912T731 1001V1126ZM559 858L471 1026H391L375 1028L377 1014V858H295V1274H504Q522 1274 541 1266T575 1244T600 1211T610 1169V1157Q610 1120 595 1093T545 1055L651 858H559ZM520 1171Q520 1182 512 1190T494 1198H375L377 1186V1114L375 1100H489Q499 1100 509 1111T520 1135V1171Z"/><glyph unicode="¯" horiz-adv-x="819" d="M156 1194V1362H664V1194H156Z"/><glyph unicode="°" horiz-adv-x="573" d="M215 614Q181 614 154 626T106 659Q85 679 73 707T61 768V1075Q61 1107 73 1134T106 1184Q128 1205 155 1217T215 1229H358Q390 1229 418 1218T467 1186Q489 1166 500 1137T512 1075V768Q512 701 467 659Q447 638 420 626T358 614H215ZM377 1073Q375 1087 364 1098T338 1110H238Q222 1110 211 1099T197 1073V772Q199 755 210 743T238 731H338Q352 731 363 743T377 772V1073Z"/><glyph unicode="±" horiz-adv-x="819" d="M53 182V350H768V182H53ZM500 621V385H324V621H53V791H324V1024H500V791H768V621H500Z"/><glyph unicode="²" horiz-adv-x="532" d="M61 512V690Q61 752 96 792T186 860L311 924Q319 929 328 942T338 975V1073Q338 1087 327 1098T301 1110H236Q220 1110 209 1099T197 1073V979H61V1104Q61 1129 70 1150T94 1188Q111 1208 136 1218T188 1229H346Q375 1229 401 1217T444 1184Q473 1149 473 1104V958Q473 895 438 856T350 791L223 725Q197 712 197 672V633H473V512H61Z"/><glyph unicode="³" horiz-adv-x="532" d="M188 512Q135 512 100 547Q82 564 72 587T61 637V692H197V666Q197 652 208 641T236 629H313Q327 629 338 640T350 666V770Q350 792 335 807T297 823H180V942H315Q325 942 331 948T338 965V1073Q338 1087 327 1098T301 1110H236Q220 1110 209 1099T197 1073V1036H61V1104Q61 1129 70 1150T94 1188Q111 1208 136 1218T188 1229H346Q374 1229 398 1218T440 1186Q456 1169 464 1149T473 1104V1010Q473 986 466 965T446 929T417 903T383 889V883Q401 882 419 872T451 846T475 807T485 760V637Q485 581 446 547Q429 531 406 522T358 512H188Z"/><glyph unicode="´" horiz-adv-x="819" d="M287 1143L451 1434H655L457 1143H287Z"/><glyph unicode="µ" horiz-adv-x="848" d="M451 0L465 84Q456 70 440 55T405 28T367 8T332 0H225Q205 0 190 3T158 12Q168 3 177 -13T194 -47T204 -85T205 -119L154 -410H-51L201 1024H406L266 236Q263 216 276 200T309 184H412Q432 184 450 200T471 236L610 1024H815L635 0H451Z"/><glyph unicode="¶" horiz-adv-x="1161" d="M803 -410V1249H578V-410H373V408H322Q280 408 243 424T177 468T133 533T117 612V1229Q117 1271 132 1307T176 1372Q204 1400 241 1417T322 1434H1008V-410H803Z"/><glyph unicode="·" horiz-adv-x="307" d="M45 444V662H262V444H45Z"/><glyph unicode="¸" horiz-adv-x="819" d="M233 -285V-121H309Q329 -121 344 -106T360 -70V45H504V-80Q504 -122 488 -159T444 -225T379 -269T299 -285H233Z"/><glyph unicode="¹" horiz-adv-x="389" d="M152 512V1106H61V1229H287V512H152Z"/><glyph unicode="º" horiz-adv-x="555" d="M199 512Q174 512 151 521T111 547Q72 581 72 635V1104Q72 1129 81 1150T106 1188Q123 1206 147 1217T199 1229H356Q384 1229 409 1218T451 1186Q466 1169 474 1148T483 1104V635Q483 610 473 588T446 549Q429 532 406 522T356 512H199ZM348 1073Q348 1087 337 1098T311 1110H246Q230 1110 219 1099T207 1073V666Q207 652 218 641T246 629H311Q325 629 336 640T348 666V1073Z"/><glyph unicode="»" horiz-adv-x="801" d="M381 264L535 516L551 532L535 549L381 799H563L725 582V481L563 264H381ZM45 264L199 516L215 532L199 549L45 799H227L389 582V481L227 264H45Z"/><glyph unicode="¼" horiz-adv-x="1106" d="M152 512V1106H61V1229H287V512H152ZM193 0L729 1229H854L317 0H193ZM831 0V137H582V236L834 717H969V256H1077V137H969V0H831ZM831 541L684 256H831V541Z"/><glyph unicode="½" horiz-adv-x="1188" d="M152 512V1106H61V1229H287V512H152ZM193 0L729 1229H854L317 0H193ZM717 0V178Q717 240 751 280T842 348L967 412Q975 417 984 430T993 463V561Q993 575 982 586T956 598H891Q875 598 864 587T852 561V467H717V592Q717 646 756 682Q789 717 844 717H1001Q1029 717 1053 707T1094 678Q1109 661 1118 639T1128 592V446Q1128 383 1093 344T1006 279L879 213Q852 200 852 160V121H1128V0H717Z"/><glyph unicode="¾" horiz-adv-x="1249" d="M188 512Q146 512 111 539Q88 556 75 581T61 637V692H197V666Q197 652 208 641T236 629H313Q327 629 338 640T350 666V770Q350 792 335 807T297 823H180V942H315Q325 942 331 948T338 965V1073Q338 1087 327 1098T301 1110H236Q220 1110 209 1099T197 1073V1036H61V1104Q61 1129 70 1150T94 1188Q111 1206 136 1217T188 1229H346Q374 1229 397 1219T438 1190Q473 1155 473 1104V1010Q473 986 466 965T446 929T417 903T383 889V883Q401 882 419 872T451 846T475 807T485 760V637Q485 614 477 593T455 555Q438 535 413 524T358 512H188ZM336 0L872 1229H997L461 0H336ZM975 0V137H725V236L977 717H1112V256H1221V137H1112V0H975ZM975 541L827 256H975V541Z"/><glyph unicode="¿" horiz-adv-x="788" d="M291 -410Q247 -410 209 -393T143 -346Q117 -318 102 -283T86 -205V51Q86 102 104 141T149 213T208 274T267 329T312 386T330 453V614H522V442Q522 386 505 345T462 272T407 213T351 156T308 91T291 8V-174Q291 -194 306 -209T342 -225H444Q464 -225 480 -210T496 -174V0H700V-205Q700 -247 685 -283T641 -348Q613 -376 576 -393T496 -410H291ZM311 807V1024H528V807H311Z"/><glyph unicode="À" horiz-adv-x="782" d="M334 1511L135 1802H340L504 1511H334ZM545 0L512 225H268L238 0H25L279 1434H504L758 0H545ZM414 922L397 1122H385L369 922L295 410H485L414 922Z"/><glyph unicode="Á" horiz-adv-x="782" d="M287 1511L451 1802H655L457 1511H287ZM545 0L512 225H268L238 0H25L279 1434H504L758 0H545ZM414 922L397 1122H385L369 922L295 410H485L414 922Z"/><glyph unicode="Â" horiz-adv-x="782" d="M494 1511L391 1677L289 1511H104L315 1802H467L678 1511H494ZM545 0L512 225H268L238 0H25L279 1434H504L758 0H545ZM414 922L397 1122H385L369 922L295 410H485L414 922Z"/><glyph unicode="Ã" horiz-adv-x="782" d="M367 1567Q342 1579 326 1587T297 1595Q278 1595 258 1574T207 1511L76 1589Q107 1641 134 1675T187 1730T239 1759T295 1767Q320 1767 342 1761T387 1743L412 1731Q436 1718 452 1710T481 1702Q500 1702 520 1723T571 1786L702 1708Q672 1656 645 1622T592 1567T539 1539T483 1530Q459 1530 436 1536T391 1554L367 1567ZM545 0L512 225H268L238 0H25L279 1434H504L758 0H545ZM414 922L397 1122H385L369 922L295 410H485L414 922Z"/><glyph unicode="Ä" horiz-adv-x="782" d="M442 1511V1716H647V1511H442ZM135 1511V1716H340V1511H135ZM545 0L512 225H268L238 0H25L279 1434H504L758 0H545ZM414 922L397 1122H385L369 922L295 410H485L414 922Z"/><glyph unicode="Å" horiz-adv-x="782" d="M391 1475Q353 1475 320 1489T262 1527T223 1585T209 1657Q209 1695 223 1728T261 1786T319 1825T391 1839Q430 1839 463 1825T520 1787T559 1729T573 1657Q573 1618 559 1585T521 1528T463 1489T391 1475ZM391 1563Q410 1563 427 1570T456 1590T476 1620T483 1657Q483 1677 476 1694T457 1724T427 1744T391 1751Q372 1751 355 1744T326 1724T306 1694T299 1657Q299 1637 306 1620T325 1590T355 1570T391 1563ZM545 0L512 225H268L238 0H25L279 1434H504L758 0H545ZM414 922L397 1122H385L369 922L295 410H485L414 922Z"/><glyph unicode="Æ" horiz-adv-x="1075" d="M498 0V225H256L193 0H-20L436 1434H1010V1249H702V829H952V645H702V184H1010V0H498ZM498 922L510 1122H498L453 922L307 410H498V922Z"/><glyph unicode="Ç" horiz-adv-x="819" d="M528 0V-80Q528 -122 512 -159T468 -225T403 -269T324 -285H258V-121H334Q354 -121 369 -106T385 -70V0H322Q281 0 246 14T182 55Q153 83 135 121T117 205V1229Q117 1271 132 1306T174 1370Q202 1399 240 1416T322 1434H547Q590 1434 628 1417T694 1370Q720 1342 736 1307T752 1229V1024H547V1198Q547 1218 532 1233T496 1249H373Q353 1249 338 1234T322 1198V236Q322 216 337 200T373 184H496Q516 184 531 200T547 236V410H752V205Q752 161 735 123T688 57Q660 31 625 16T547 0H528Z"/><glyph unicode="È" horiz-adv-x="717" d="M139 0V1434H651V1249H344V829H594V645H344V184H651V0H139ZM338 1511L139 1802H344L508 1511H338Z"/><glyph unicode="É" horiz-adv-x="717" d="M139 0V1434H651V1249H344V829H594V645H344V184H651V0H139ZM297 1511L461 1802H666L467 1511H297Z"/><glyph unicode="Ê" horiz-adv-x="717" d="M139 0V1434H651V1249H344V829H594V645H344V184H651V0H139ZM498 1511L395 1677L293 1511H109L319 1802H471L682 1511H498Z"/><glyph unicode="Ë" horiz-adv-x="717" d="M139 0V1434H651V1249H344V829H594V645H344V184H651V0H139ZM446 1511V1716H651V1511H446ZM139 1511V1716H344V1511H139Z"/><glyph unicode="Ì" horiz-adv-x="483" d="M139 0V1434H344V0H139ZM174 1511L-25 1802H180L344 1511H174Z"/><glyph unicode="Í" horiz-adv-x="483" d="M139 0V1434H344V0H139ZM139 1511L303 1802H508L309 1511H139Z"/><glyph unicode="Î" horiz-adv-x="483" d="M139 0V1434H344V0H139ZM344 1511L242 1677L139 1511H-45L166 1802H317L528 1511H344Z"/><glyph unicode="Ï" horiz-adv-x="483" d="M139 0V1434H344V0H139ZM293 1511V1716H498V1511H293ZM-14 1511V1716H190V1511H-14Z"/><glyph unicode="Ð" horiz-adv-x="905" d="M584 1198Q584 1218 568 1233T532 1249H358V805H473V635H358V184H532Q552 184 568 200T584 236V1198ZM154 0V635H47V805H154V1434H584Q629 1434 667 1417T733 1368Q759 1340 773 1305T788 1229V205Q788 160 771 122T723 55Q695 31 660 16T584 0H154Z"/><glyph unicode="Ñ" horiz-adv-x="977" d="M633 0L371 819L322 1024H309L344 442V0H139V1434H344L608 614L655 410H670L633 995V1434H838V0H633ZM467 1567Q442 1579 426 1587T397 1595Q379 1595 359 1574T307 1511L176 1589Q207 1641 234 1675T287 1730T339 1759T395 1767Q420 1767 443 1761T487 1743L512 1731Q537 1718 553 1710T582 1702Q600 1702 620 1723T672 1786L803 1708Q772 1656 745 1622T692 1567T640 1539T584 1530Q559 1530 536 1536T492 1554L467 1567Z"/><glyph unicode="Ò" horiz-adv-x="868" d="M377 1511L178 1802H383L547 1511H377ZM322 0Q278 0 242 16T176 61Q148 89 133 125T117 205V1229Q117 1272 132 1308T176 1372Q205 1401 241 1417T322 1434H547Q592 1434 627 1418T690 1374Q719 1346 735 1310T752 1229V205Q752 160 736 125T692 61Q664 32 628 16T547 0H322ZM547 1198Q547 1218 532 1233T496 1249H373Q353 1249 338 1234T322 1198V236Q322 216 337 200T373 184H496Q517 184 532 200T547 236V1198Z"/><glyph unicode="Ó" horiz-adv-x="868" d="M342 1511L506 1802H711L512 1511H342ZM322 0Q278 0 242 16T176 61Q148 89 133 125T117 205V1229Q117 1272 132 1308T176 1372Q205 1401 241 1417T322 1434H547Q592 1434 627 1418T690 1374Q719 1346 735 1310T752 1229V205Q752 160 736 125T692 61Q664 32 628 16T547 0H322ZM547 1198Q547 1218 532 1233T496 1249H373Q353 1249 338 1234T322 1198V236Q322 216 337 200T373 184H496Q517 184 532 200T547 236V1198Z"/><glyph unicode="Ô" horiz-adv-x="868" d="M537 1511L434 1677L332 1511H147L358 1802H510L721 1511H537ZM322 0Q278 0 242 16T176 61Q148 89 133 125T117 205V1229Q117 1272 132 1308T176 1372Q205 1401 241 1417T322 1434H547Q592 1434 627 1418T690 1374Q719 1346 735 1310T752 1229V205Q752 160 736 125T692 61Q664 32 628 16T547 0H322ZM547 1198Q547 1218 532 1233T496 1249H373Q353 1249 338 1234T322 1198V236Q322 216 337 200T373 184H496Q517 184 532 200T547 236V1198Z"/><glyph unicode="Õ" horiz-adv-x="868" d="M322 0Q280 0 243 16T177 60T133 125T117 205V1229Q117 1271 133 1308T177 1373T242 1417T322 1434H547Q589 1434 626 1418T691 1374T735 1309T752 1229V205Q752 163 736 126T692 60T627 16T547 0H322ZM547 1198Q547 1218 532 1233T496 1249H373Q353 1249 338 1234T322 1198V236Q322 216 337 200T373 184H496Q516 184 531 200T547 236V1198ZM412 1567Q387 1579 371 1587T342 1595Q323 1595 303 1574T252 1511L121 1589Q152 1641 179 1675T232 1730T284 1759T340 1767Q365 1767 387 1761T432 1743L457 1731Q481 1718 497 1710T526 1702Q545 1702 565 1723T616 1786L748 1708Q717 1656 690 1622T637 1567T584 1539T528 1530Q504 1530 481 1536T436 1554L412 1567Z"/><glyph unicode="Ö" horiz-adv-x="868" d="M322 0Q280 0 243 16T177 60T133 125T117 205V1229Q117 1271 133 1308T177 1373T242 1417T322 1434H547Q589 1434 626 1418T691 1374T735 1309T752 1229V205Q752 163 736 126T692 60T627 16T547 0H322ZM547 1198Q547 1218 532 1233T496 1249H373Q353 1249 338 1234T322 1198V236Q322 216 337 200T373 184H496Q516 184 531 200T547 236V1198ZM485 1511V1716H690V1511H485ZM178 1511V1716H383V1511H178Z"/><glyph unicode="×" horiz-adv-x="819" d="M410 520L150 260L29 381L291 641L29 903L150 1022L410 762L670 1022L791 901L530 641L791 383L670 260L410 520Z"/><glyph unicode="Ø" horiz-adv-x="868" d="M322 0Q275 0 236 18Q236 19 230 1T215 -41Q206 -67 195 -102H100L162 78Q117 132 117 205V1229Q117 1272 133 1309T178 1374Q206 1402 243 1418T322 1434H547Q570 1434 591 1429T633 1415L674 1536H762L702 1360Q725 1334 738 1300T752 1229V205Q752 161 735 123T688 57Q660 31 625 16T547 0H322ZM557 1190V1198Q557 1218 542 1233T506 1249H362Q342 1249 327 1234T311 1198V647Q311 598 306 551T293 451L557 1190ZM557 793Q557 842 562 889T575 989L311 250V236Q311 216 326 200T362 184H506Q526 184 541 200T557 236V793Z"/><glyph unicode="Ù" horiz-adv-x="897" d="M391 1511L193 1802H397L561 1511H391ZM336 0Q293 0 256 16T190 61Q163 89 147 125T131 205V1434H336V236Q336 216 351 200T387 184H510Q529 184 545 198T561 233V1434H766V205Q766 160 750 125T707 61Q679 32 643 16T561 0H336Z"/><glyph unicode="Ú" horiz-adv-x="897" d="M346 1511L510 1802H715L516 1511H346ZM336 0Q293 0 256 16T190 61Q163 89 147 125T131 205V1434H336V236Q336 216 351 200T387 184H510Q529 184 545 198T561 233V1434H766V205Q766 160 750 125T707 61Q679 32 643 16T561 0H336Z"/><glyph unicode="Û" horiz-adv-x="897" d="M551 1511L449 1677L346 1511H162L373 1802H524L735 1511H551ZM336 0Q293 0 256 16T190 61Q163 89 147 125T131 205V1434H336V236Q336 216 351 200T387 184H510Q529 184 545 198T561 233V1434H766V205Q766 160 750 125T707 61Q679 32 643 16T561 0H336Z"/><glyph unicode="Ü" horiz-adv-x="897" d="M336 0Q294 0 257 16T191 60T147 125T131 205V1434H336V236Q336 216 351 200T387 184H510Q530 184 545 200T561 236V1434H766V205Q766 163 750 126T706 60T641 16T561 0H336ZM500 1511V1716H705V1511H500ZM193 1511V1716H397V1511H193Z"/><glyph unicode="Ý" horiz-adv-x="700" d="M258 1511L422 1802H627L428 1511H258ZM248 0V647L-6 1434H201L313 1014L350 883H362L397 1014L512 1434H707L453 645V0H248Z"/><glyph unicode="Þ" horiz-adv-x="856" d="M139 0V1434H344V1118H569Q616 1118 655 1100T723 1049Q774 992 774 913V535Q774 491 757 453T711 387Q683 361 647 346T569 330H344V0H139ZM569 883Q569 903 554 918T518 934H344V514H518Q538 514 553 529T569 565V883Z"/><glyph unicode="ß" horiz-adv-x="870" d="M475 0V184H571Q591 184 607 200T623 236V328Q623 351 617 375T596 428L475 637V819H500Q528 819 539 836T551 868V1198Q551 1218 536 1233T500 1249H397Q379 1249 363 1234T346 1198V0H141V840H39V1024H141V1229Q141 1271 157 1307T201 1372Q229 1401 266 1417T346 1434H551Q594 1434 632 1417T698 1370Q724 1342 740 1307T756 1229V932Q756 856 723 813T645 756V745L713 631Q728 605 748 573T785 505T815 426T827 338V205Q827 161 810 123T764 57Q736 31 701 16T623 0H475Z"/><glyph unicode="à" horiz-adv-x="813" d="M524 0V84Q517 70 504 55T474 28T439 8T406 0H299Q254 0 219 16T156 59Q127 87 111 123T94 205V389Q94 432 110 469T156 535Q184 562 219 578T299 594H504V788Q504 807 489 822T453 840H350Q330 840 315 824T299 788V717H94V819Q94 863 110 899T156 963Q184 992 220 1008T299 1024H504Q547 1022 583 1006T649 963Q677 935 693 898T709 817V0H524ZM504 430H348Q330 430 315 415T299 379V233Q299 213 314 199T350 184H453Q473 184 488 200T504 236V430ZM334 1143L135 1434H340L504 1143H334Z"/><glyph unicode="á" horiz-adv-x="813" d="M524 0V84Q517 70 504 55T474 28T439 8T406 0H299Q254 0 219 16T156 59Q127 87 111 123T94 205V389Q94 432 110 469T156 535Q184 562 219 578T299 594H504V788Q504 807 489 822T453 840H350Q330 840 315 824T299 788V717H94V819Q94 863 110 899T156 963Q184 992 220 1008T299 1024H504Q547 1022 583 1006T649 963Q677 935 693 898T709 817V0H524ZM504 430H348Q330 430 315 415T299 379V233Q299 213 314 199T350 184H453Q473 184 488 200T504 236V430ZM299 1143L463 1434H668L469 1143H299Z"/><glyph unicode="â" horiz-adv-x="813" d="M524 0V84Q517 70 504 55T474 28T439 8T406 0H299Q254 0 219 16T156 59Q127 87 111 123T94 205V389Q94 432 110 469T156 535Q184 562 219 578T299 594H504V788Q504 807 489 822T453 840H350Q330 840 315 824T299 788V717H94V819Q94 863 110 899T156 963Q184 992 220 1008T299 1024H504Q547 1022 583 1006T649 963Q677 935 693 898T709 817V0H524ZM504 430H348Q330 430 315 415T299 379V233Q299 213 314 199T350 184H453Q473 184 488 200T504 236V430ZM524 1143L422 1309L319 1143H135L346 1434H498L709 1143H524Z"/><glyph unicode="ã" horiz-adv-x="813" d="M524 0V84Q517 70 504 55T474 28T439 8T406 0H299Q254 0 219 16T156 59Q127 87 111 123T94 205V389Q94 432 110 469T156 535Q184 562 219 578T299 594H504V788Q504 807 489 822T453 840H350Q330 840 315 824T299 788V717H94V819Q94 863 110 899T156 963Q184 992 220 1008T299 1024H504Q547 1022 583 1006T649 963Q677 935 693 898T709 817V0H524ZM504 430H348Q330 430 315 415T299 379V233Q299 213 314 199T350 184H453Q473 184 488 200T504 236V430ZM389 1198Q364 1210 348 1218T319 1227Q301 1227 281 1206T229 1143L98 1221Q129 1273 156 1307T209 1362T262 1390T317 1399Q342 1399 365 1392T410 1374L434 1362Q459 1350 475 1342T504 1333Q522 1333 542 1354T594 1417L725 1339Q694 1287 667 1253T614 1198T562 1170T506 1161Q481 1161 458 1168T414 1186L389 1198Z"/><glyph unicode="ä" horiz-adv-x="813" d="M524 0V84Q517 70 504 55T474 28T439 8T406 0H299Q254 0 219 16T156 59Q127 87 111 123T94 205V389Q94 432 110 469T156 535Q184 562 219 578T299 594H504V788Q504 807 489 822T453 840H350Q330 840 315 824T299 788V717H94V819Q94 863 110 899T156 963Q184 992 220 1008T299 1024H504Q547 1022 583 1006T649 963Q677 935 693 898T709 817V0H524ZM504 430H348Q330 430 315 415T299 379V233Q299 213 314 199T350 184H453Q473 184 488 200T504 236V430ZM166 1229V1434H371V1229H166ZM473 1229V1434H678V1229H473Z"/><glyph unicode="å" horiz-adv-x="813" d="M524 0V84Q517 70 504 55T474 28T439 8T406 0H299Q254 0 219 16T156 59Q127 87 111 123T94 205V389Q94 432 110 469T156 535Q184 562 219 578T299 594H504V788Q504 807 489 822T453 840H350Q330 840 315 824T299 788V717H94V819Q94 863 110 899T156 963Q184 992 220 1008T299 1024H504Q547 1022 583 1006T649 963Q677 935 693 898T709 817V0H524ZM504 430H348Q330 430 315 415T299 379V233Q299 213 314 199T350 184H453Q473 184 488 200T504 236V430ZM401 1106Q363 1106 330 1120T272 1158T233 1216T219 1288Q219 1327 233 1360T271 1417T329 1456T401 1470Q440 1470 473 1456T531 1418T570 1360T584 1288Q584 1250 570 1217T531 1159T473 1120T401 1106ZM401 1194Q440 1194 467 1221T494 1288Q494 1328 467 1355T401 1382Q382 1382 365 1375T336 1355T316 1325T309 1288Q309 1268 316 1251T335 1221T365 1201T401 1194Z"/><glyph unicode="æ" horiz-adv-x="1217" d="M709 0Q681 0 655 11T606 37Q583 23 558 12T504 0H299Q257 0 221 16T156 59Q127 87 111 124T94 205V389Q94 431 110 467T152 530Q179 559 217 576T299 594H504V788Q504 808 489 824T453 840H350Q330 840 315 824T299 788V717H94V819Q94 861 110 897T152 961Q179 990 217 1007T299 1024H504Q532 1024 557 1013T606 987Q629 1001 655 1012T709 1024H913Q958 1024 996 1007T1063 958Q1089 931 1103 895T1118 819V430H709V236Q709 216 724 200T760 184H862Q882 184 897 200T913 236V307H1118V205Q1118 161 1102 124T1057 59Q1029 32 992 16T913 0H709ZM913 788Q913 808 898 824T862 840H760Q740 840 725 824T709 788V594H913V788ZM504 430H350Q341 430 332 426T315 416Q299 400 299 379V236Q299 216 314 200T350 184H453Q473 184 488 200T504 236V430Z"/><glyph unicode="ç" horiz-adv-x="776" d="M229 -285V-121H305Q325 -121 340 -106T356 -70V0H303Q260 0 224 16T160 61Q131 89 115 125T98 205V819Q98 864 114 900T160 965Q188 992 224 1008T303 1024H508Q551 1024 587 1008T651 965Q680 937 696 901T713 819V717H508V788Q508 808 493 824T457 840H354Q334 840 319 824T303 788V236Q303 216 318 201T354 184H457Q477 186 491 201T508 236V307H713V205Q713 161 697 125T651 61Q623 32 587 16T506 0H500V-80Q500 -122 484 -159T440 -225T375 -269T295 -285H229Z"/><glyph unicode="è" horiz-adv-x="811" d="M303 0Q260 0 224 16T160 61Q131 89 115 125T98 205V819Q98 864 114 900T160 965Q188 992 224 1008T303 1024H508Q551 1024 587 1008T651 965Q680 937 696 901T713 819V430H303V236Q303 216 318 201T354 184H457Q477 186 491 201T508 236V307H713V205Q713 161 697 125T651 61Q623 32 587 16T506 0H303ZM508 788Q508 808 493 824T457 840H354Q334 840 319 824T303 788V594H508V788ZM338 1143L139 1434H344L508 1143H338Z"/><glyph unicode="é" horiz-adv-x="811" d="M303 0Q260 0 224 16T160 61Q131 89 115 125T98 205V819Q98 864 114 900T160 965Q188 992 224 1008T303 1024H508Q551 1024 587 1008T651 965Q680 937 696 901T713 819V430H303V236Q303 216 318 201T354 184H457Q477 186 491 201T508 236V307H713V205Q713 161 697 125T651 61Q623 32 587 16T506 0H303ZM508 788Q508 808 493 824T457 840H354Q334 840 319 824T303 788V594H508V788ZM303 1143L467 1434H672L473 1143H303Z"/><glyph unicode="ê" horiz-adv-x="811" d="M303 0Q260 0 224 16T160 61Q131 89 115 125T98 205V819Q98 864 114 900T160 965Q188 992 224 1008T303 1024H508Q551 1024 587 1008T651 965Q680 937 696 901T713 819V430H303V236Q303 216 318 201T354 184H457Q477 186 491 201T508 236V307H713V205Q713 161 697 125T651 61Q623 32 587 16T506 0H303ZM508 788Q508 808 493 824T457 840H354Q334 840 319 824T303 788V594H508V788ZM508 1143L406 1309L303 1143H119L330 1434H481L692 1143H508Z"/><glyph unicode="ë" horiz-adv-x="811" d="M303 0Q260 0 224 16T160 61Q131 89 115 125T98 205V819Q98 864 114 900T160 965Q188 992 224 1008T303 1024H508Q551 1024 587 1008T651 965Q680 937 696 901T713 819V430H303V236Q303 216 318 201T354 184H457Q477 186 491 201T508 236V307H713V205Q713 161 697 125T651 61Q623 32 587 16T506 0H303ZM508 788Q508 808 493 824T457 840H354Q334 840 319 824T303 788V594H508V788ZM150 1229V1434H354V1229H150ZM457 1229V1434H662V1229H457Z"/><glyph unicode="ì" horiz-adv-x="422" d="M74 0V1024H279V0H74ZM129 1143L-70 1434H135L299 1143H129Z"/><glyph unicode="í" horiz-adv-x="422" d="M109 0V1024H313V0H109ZM88 1143L252 1434H457L258 1143H88Z"/><glyph unicode="î" horiz-adv-x="422" d="M109 0V1024H313V0H109ZM313 1143L211 1309L109 1143H-76L135 1434H287L498 1143H313Z"/><glyph unicode="ï" horiz-adv-x="422" d="M109 0V1024H313V0H109ZM-45 1229V1434H160V1229H-45ZM262 1229V1434H467V1229H262Z"/><glyph unicode="ð" horiz-adv-x="825" d="M317 0Q275 0 240 15T176 57Q147 85 130 123T113 205V819Q113 861 127 898T170 963Q198 992 236 1008T317 1024H354Q367 1024 382 1021T412 1013T439 1003T459 993Q413 1092 344 1174L113 1081V1229L242 1280Q210 1309 177 1334T113 1380L322 1440Q346 1423 373 1402T426 1354L625 1434V1286L526 1247Q568 1196 604 1139T668 1023T711 908T727 799V205Q727 161 710 123T664 57Q636 31 600 16T522 0H317ZM522 788Q522 808 507 824T471 840H369Q349 840 333 824T317 788V236Q317 216 333 200T369 184H471Q491 184 506 200T522 236V788Z"/><glyph unicode="ñ" horiz-adv-x="827" d="M518 0V788Q518 808 503 824T467 840H365Q345 840 329 824T313 788V0H109V1024H293V942Q300 956 313 970T344 997T379 1016T412 1024H518Q560 1024 597 1008T663 964T707 899T723 819V0H518ZM403 1198Q379 1210 363 1218T334 1227Q315 1227 295 1206T244 1143L113 1221Q144 1273 171 1307T224 1362T276 1390T332 1399Q357 1399 379 1392T424 1374L449 1362Q473 1350 489 1342T518 1333Q537 1333 557 1354T608 1417L739 1339Q708 1287 681 1253T628 1198T576 1170T520 1161Q495 1161 473 1168T428 1186L403 1198Z"/><glyph unicode="ò" horiz-adv-x="811" d="M303 0Q260 0 224 16T160 59Q131 88 115 124T98 205V817Q98 860 114 897T160 963Q188 990 224 1006T303 1022H508Q551 1022 587 1006T651 963Q680 934 696 897T713 817V205Q713 161 697 125T653 61Q625 34 588 17T508 0H303ZM508 786Q508 806 493 822T457 838H354Q334 838 319 822T303 786V236Q303 216 318 200T354 184H457Q477 184 492 200T508 236V786ZM338 1143L139 1434H344L508 1143H338Z"/><glyph unicode="ó" horiz-adv-x="811" d="M303 0Q260 0 224 16T160 59Q131 88 115 124T98 205V817Q98 860 114 897T160 963Q188 990 224 1006T303 1022H508Q551 1022 587 1006T651 963Q680 934 696 897T713 817V205Q713 161 697 125T653 61Q625 34 588 17T508 0H303ZM508 786Q508 806 493 822T457 838H354Q334 838 319 822T303 786V236Q303 216 318 200T354 184H457Q477 184 492 200T508 236V786ZM303 1143L467 1434H672L473 1143H303Z"/><glyph unicode="ô" horiz-adv-x="811" d="M303 0Q260 0 224 16T160 59Q131 88 115 124T98 205V817Q98 860 114 897T160 963Q188 990 224 1006T303 1022H508Q551 1022 587 1006T651 963Q680 934 696 897T713 817V205Q713 161 697 125T653 61Q625 34 588 17T508 0H303ZM508 786Q508 806 493 822T457 838H354Q334 838 319 822T303 786V236Q303 216 318 200T354 184H457Q477 184 492 200T508 236V786ZM508 1143L406 1309L303 1143H119L330 1434H481L692 1143H508Z"/><glyph unicode="õ" horiz-adv-x="811" d="M303 0Q260 0 224 16T160 59Q131 88 115 124T98 205V817Q98 860 114 897T160 963Q188 990 224 1006T303 1022H508Q551 1022 587 1006T651 963Q680 934 696 897T713 817V205Q713 161 697 125T653 61Q625 34 588 17T508 0H303ZM508 786Q508 806 493 822T457 838H354Q334 838 319 822T303 786V236Q303 216 318 200T354 184H457Q477 184 492 200T508 236V786ZM383 1198Q358 1210 342 1218T313 1227Q295 1227 275 1206T223 1143L92 1221Q123 1273 150 1307T203 1362T255 1390T311 1399Q336 1399 359 1392T403 1374L428 1362Q453 1350 469 1342T498 1333Q516 1333 536 1354T588 1417L719 1339Q688 1287 661 1253T608 1198T556 1170T500 1161Q475 1161 452 1168T408 1186L383 1198Z"/><glyph unicode="ö" horiz-adv-x="811" d="M303 0Q260 0 224 16T160 59Q131 88 115 124T98 205V817Q98 860 114 897T160 963Q188 990 224 1006T303 1022H508Q551 1022 587 1006T651 963Q680 934 696 897T713 817V205Q713 161 697 125T653 61Q625 34 588 17T508 0H303ZM508 786Q508 806 493 822T457 838H354Q334 838 319 822T303 786V236Q303 216 318 200T354 184H457Q477 184 492 200T508 236V786ZM457 1229V1434H662V1229H457ZM150 1229V1434H354V1229H150Z"/><glyph unicode="÷" horiz-adv-x="819" d="M307 819V1024H512V819H307ZM82 557V725H737V557H82ZM307 256V461H512V256H307Z"/><glyph unicode="ø" horiz-adv-x="811" d="M303 0Q265 0 231 12Q231 13 223 -4T205 -44Q194 -70 180 -102H82L156 63Q130 91 114 127T98 205V819Q98 861 114 897T156 961Q184 990 222 1007T303 1024H508Q545 1024 580 1012Q590 1035 598 1055T615 1092Q623 1110 631 1126H723Q713 1104 702 1078Q692 1056 679 1027T651 965Q680 937 696 900T713 819V205Q713 161 696 123T649 57Q621 31 586 16T508 0H303ZM344 840Q324 840 309 824T293 788V512Q293 462 288 415T274 317Q276 322 287 347T314 409T350 491T390 583T430 674T465 752T489 806T498 827Q491 834 483 837T467 840H344ZM518 512Q518 560 523 607T537 707Q534 701 523 676T496 614T460 532T420 440T380 349T346 272T322 218T313 197Q320 190 328 187T344 184H467Q487 184 502 200T518 236V512Z"/><glyph unicode="ù" horiz-adv-x="827" d="M537 0V84Q529 70 515 55T485 28T451 8T418 0H309Q266 0 230 16T166 61Q137 89 121 125T104 205V1024H309V236Q309 216 324 200T360 184H463Q483 186 498 201T514 236V1024H719V0H537ZM365 1143L166 1434H371L535 1143H365Z"/><glyph unicode="ú" horiz-adv-x="827" d="M537 0V84Q529 70 515 55T485 28T451 8T418 0H309Q266 0 230 16T166 61Q137 89 121 125T104 205V1024H309V236Q309 216 324 200T360 184H463Q483 186 498 201T514 236V1024H719V0H537ZM299 1143L463 1434H668L469 1143H299Z"/><glyph unicode="û" horiz-adv-x="827" d="M537 0V84Q529 70 515 55T485 28T451 8T418 0H309Q266 0 230 16T166 61Q137 89 121 125T104 205V1024H309V236Q309 216 324 200T360 184H463Q483 186 498 201T514 236V1024H719V0H537ZM514 1143L412 1309L309 1143H125L336 1434H487L698 1143H514Z"/><glyph unicode="ü" horiz-adv-x="827" d="M537 0V84Q529 70 515 55T485 28T451 8T418 0H309Q266 0 230 16T166 61Q137 89 121 125T104 205V1024H309V236Q309 216 324 200T360 184H463Q483 186 498 201T514 236V1024H719V0H537ZM463 1229V1434H668V1229H463ZM156 1229V1434H360V1229H156Z"/><glyph unicode="ý" horiz-adv-x="801" d="M272 1143L436 1434H641L442 1143H272ZM80 -410L82 -217H188Q217 -217 244 -190Q267 -170 276 -131L299 -37L2 1024H236L367 436L399 236H412L442 436L569 1024H788L475 -160Q463 -206 438 -248T379 -324Q342 -362 295 -385T199 -410H80Z"/><glyph unicode="þ" horiz-adv-x="821" d="M109 -410V1434H313V942Q316 956 323 967T340 987Q357 1004 377 1014T414 1024H518Q561 1024 597 1008T662 965Q691 937 707 901T723 819V205Q723 161 707 125T662 61Q634 32 598 16T518 0H432Q410 0 386 13T342 45Q323 64 313 84V-410H109ZM518 788Q518 808 503 824T467 840H365Q345 840 329 824T313 788V236Q315 216 330 201T365 184H467Q487 186 502 201T518 236V788Z"/><glyph unicode="ÿ" horiz-adv-x="801" d="M80 -410V-217H188Q219 -217 243 -192T276 -131L299 -37L2 1024H229L360 436L393 236H406L436 436L563 1024H788L475 -160Q462 -210 435 -255T370 -334T289 -389T199 -410H80ZM446 1229V1434H651V1229H446ZM139 1229V1434H344V1229H139Z"/><glyph unicode="ı" horiz-adv-x="422" d="M109 0V1024H313V0H109Z"/><glyph unicode="Ł" horiz-adv-x="676" d="M154 0V633L10 575V758L154 815V1434H358V897L522 963V780L358 715V184H666V0H154Z"/><glyph unicode="ł" horiz-adv-x="537" d="M360 236Q360 225 365 215T379 197Q385 190 394 187T414 184H504V0H360Q317 0 281 16T215 61Q187 89 172 125T156 205V623L12 555V737L156 805V1434H360V905L504 975V793L360 723V236Z"/><glyph unicode="Œ" horiz-adv-x="1122" d="M1057 0H322Q280 0 243 14T178 57Q149 85 133 123T117 205V1229Q117 1271 132 1306T174 1370Q202 1399 240 1416T322 1434H1057V1249H750V829H999V645H750V184H1057V0ZM547 1198Q547 1218 532 1233T496 1249H373Q353 1249 338 1234T322 1198V236Q322 216 337 200T373 184H496Q516 184 531 200T547 236V1198Z"/><glyph unicode="œ" horiz-adv-x="1221" d="M713 0Q681 0 647 16L610 37L573 16Q541 0 508 0H303Q261 0 226 15T162 57Q133 85 116 123T98 205V819Q98 861 114 897T156 961Q184 990 222 1007T303 1024H508Q526 1024 543 1019T578 1006L610 987L645 1006Q661 1014 678 1019T713 1024H918Q961 1024 999 1007T1065 961Q1091 933 1106 897T1122 819V430H713V236Q713 216 728 200T764 184H866Q886 184 902 200T918 236V307H1122V205Q1122 161 1106 123T1061 57Q1033 29 997 15T918 0H713ZM508 788Q508 808 493 824T457 840H354Q334 840 319 824T303 788V236Q303 216 318 200T354 184H457Q477 184 492 200T508 236V788ZM918 788Q918 808 902 824T866 840H764Q744 840 729 824T713 788V594H918V788Z"/><glyph unicode="Š" horiz-adv-x="823" d="M336 1511L125 1802H309L412 1636L514 1802H698L487 1511H336ZM299 0Q254 0 219 16T156 59Q127 87 111 123T94 205V410H299V236Q299 216 313 200T350 184H473Q493 184 508 200T524 236V473Q524 510 507 536T473 573L297 690Q258 716 222 743T157 803T111 877T94 971V1229Q94 1274 110 1310T156 1374Q184 1402 219 1418T299 1434H524Q568 1434 604 1418T670 1372Q698 1344 713 1308T729 1229V1024H524V1198Q524 1218 509 1233T473 1249H350Q330 1249 315 1234T299 1198V1004Q299 965 315 940T350 901L522 793Q562 767 599 738T665 675T711 598T729 502V205Q729 161 714 125T670 61Q641 32 605 16T524 0H299Z"/><glyph unicode="š" horiz-adv-x="786" d="M317 1143L106 1434H291L393 1268L496 1434H680L469 1143H317ZM289 0Q249 0 213 16T147 61Q120 89 103 125T86 205V307H291V233Q291 215 306 200T342 184H444Q464 184 480 200T496 236V328Q496 356 484 367T444 389L258 457Q177 487 135 524Q109 550 98 588T86 686V819Q86 863 102 899T145 963Q174 992 210 1008T291 1024H498Q540 1026 576 1009T641 965Q669 937 684 901T700 819V717H498V791Q499 801 495 810T483 826T465 837T444 840H342Q322 840 307 824T291 788V696Q291 670 300 658T342 635L524 575Q562 563 592 549T645 512Q673 483 686 442T700 338V205Q700 161 685 125T641 61Q612 32 576 16T496 0H289Z"/><glyph unicode="Ÿ" horiz-adv-x="700" d="M248 0V647L-6 1434H195L307 1014L344 883H356L391 1014L506 1434H707L453 645V0H248ZM401 1511V1716H606V1511H401ZM94 1511V1716H299V1511H94Z"/><glyph unicode="Ž" horiz-adv-x="696" d="M41 0V172L451 1249H41V1434H655V1262L246 184H655V0H41ZM272 1511L61 1802H246L348 1636L451 1802H635L424 1511H272Z"/><glyph unicode="ž" horiz-adv-x="700" d="M43 0V172L432 840H43V1024H657V852L268 184H657V0H43ZM274 1143L63 1434H248L350 1268L453 1434H637L426 1143H274Z"/><glyph unicode="ƒ" horiz-adv-x="819" d="M14 -193V0H123Q138 0 152 7T179 25T199 52T211 86L293 553H147V717H328L373 995Q381 1043 401 1083T451 1155Q485 1189 528 1208T621 1227H805V1044H631Q603 1044 591 1025T573 977L530 717H719V553H498L410 57Q400 8 374 -35T313 -113Q275 -150 228 -171T133 -193H14Z"/><glyph unicode="ʰ" horiz-adv-x="555" d="M348 512V1073Q348 1087 337 1098T311 1110H246Q230 1110 219 1099T207 1073V512H72V1434H207V1202Q219 1215 233 1222T260 1229H356Q384 1229 408 1218T449 1188Q464 1171 473 1150T483 1104V512H348Z"/><glyph unicode="ˆ" horiz-adv-x="819" d="M512 1143L410 1309L307 1143H123L334 1434H485L696 1143H512Z"/><glyph unicode="ˇ" horiz-adv-x="819" d="M334 1143L123 1434H307L410 1268L512 1434H696L485 1143H334Z"/><glyph unicode="˘" horiz-adv-x="819" d="M348 1143Q306 1143 269 1159T204 1203T160 1268T143 1348V1434H307V1337Q307 1317 322 1302T358 1286H461Q481 1286 496 1301T512 1337V1434H676V1348Q676 1306 660 1269T616 1203T551 1159T471 1143H348Z"/><glyph unicode="˙" horiz-adv-x="819" d="M307 1229V1434H512V1229H307Z"/><glyph unicode="˚" horiz-adv-x="819" d="M410 1106Q371 1106 338 1120T280 1158T241 1216T227 1288Q227 1327 241 1360T280 1417T338 1456T410 1470Q448 1470 481 1456T539 1418T578 1360T592 1288Q592 1250 578 1217T540 1159T482 1120T410 1106ZM410 1194Q429 1194 446 1201T475 1221T495 1251T502 1288Q502 1308 495 1325T476 1355T446 1375T410 1382Q371 1382 344 1355T317 1288Q317 1248 344 1221T410 1194Z"/><glyph unicode="˛" horiz-adv-x="819" d="M520 -285Q478 -285 441 -269T376 -225T332 -160T315 -80V45H459V-70Q459 -90 474 -105T510 -121H586V-285H520Z"/><glyph unicode="˜" horiz-adv-x="819" d="M387 1198Q362 1210 346 1218T317 1227Q299 1227 279 1206T227 1143L96 1221Q127 1273 154 1307T207 1362T260 1390T315 1399Q340 1399 363 1392T408 1374L432 1362Q457 1350 473 1342T502 1333Q520 1333 540 1354T592 1417L723 1339Q692 1287 665 1253T612 1198T560 1170T504 1161Q479 1161 456 1168T412 1186L387 1198Z"/><glyph unicode="˝" horiz-adv-x="819" d="M516 1143L680 1434H844L645 1143H516ZM287 1143L451 1434H614L416 1143H287Z"/><glyph unicode="Δ" horiz-adv-x="1145" d="M63 0V145L457 1434H688L1081 147V0H63ZM586 1143L571 1184L557 1143L295 184H850L586 1143Z"/><glyph unicode="Ω" horiz-adv-x="1239" d="M696 0V172Q777 181 823 216T892 298T920 399T926 496V985Q926 1032 910 1081T857 1169T762 1234T621 1260Q539 1260 481 1235T386 1170T331 1081T313 985V496Q313 452 318 399T346 299T415 216T543 172V0H102V184H258Q225 202 197 232T147 297T114 371T102 444V993Q102 1041 114 1093T152 1197T218 1295T316 1377T448 1433T618 1454Q713 1454 788 1433T922 1377T1020 1296T1087 1198T1125 1094T1137 993V444Q1137 409 1126 371T1093 298T1044 232T983 184H1137V0H696Z"/><glyph unicode="μ" horiz-adv-x="848" d="M451 0L465 84Q456 70 440 55T405 28T367 8T332 0H225Q205 0 190 3T158 12Q168 3 177 -13T194 -47T204 -85T205 -119L154 -410H-51L201 1024H406L266 236Q263 216 276 200T309 184H412Q432 184 450 200T471 236L610 1024H815L635 0H451Z"/><glyph unicode="π" horiz-adv-x="1075" d="M532 0L686 840H459L305 0H102L260 840H102V1024H1034V840H887L731 0H532Z"/><glyph unicode="–" horiz-adv-x="922" d="M82 449V614H840V449H82Z"/><glyph unicode="—" horiz-adv-x="1638" d="M82 449V614H1556V449H82Z"/><glyph unicode="‘" horiz-adv-x="287" d="M51 1024V1296Q51 1364 96 1399T236 1434V1331Q197 1331 186 1317T174 1274V1208H197Q218 1208 227 1199T236 1167V1024H51Z"/><glyph unicode="’" horiz-adv-x="287" d="M51 1126Q89 1126 101 1140T113 1184V1249H90Q68 1249 60 1259T51 1290V1434H236V1161Q236 1024 51 1024V1126Z"/><glyph unicode="‚" horiz-adv-x="287" d="M51 -90Q89 -90 101 -76T113 -33V33H90Q68 33 60 42T51 74V217H236V-55Q236 -123 191 -158T51 -193V-90Z"/><glyph unicode="“" horiz-adv-x="569" d="M51 1024V1296Q51 1364 96 1399T236 1434V1331Q197 1331 186 1317T174 1274V1208H197Q218 1208 227 1199T236 1167V1024H51ZM334 1024V1296Q334 1364 379 1399T518 1434V1331Q480 1331 469 1317T457 1274V1208H479Q501 1208 509 1199T518 1167V1024H334Z"/><glyph unicode="”" horiz-adv-x="569" d="M334 1126Q372 1126 383 1140T395 1184V1249H373Q351 1249 343 1259T334 1290V1434H518V1161Q518 1093 473 1059T334 1024V1126ZM51 1126Q89 1126 101 1140T113 1184V1249H90Q68 1249 60 1259T51 1290V1434H236V1161Q236 1024 51 1024V1126Z"/><glyph unicode="„" horiz-adv-x="569" d="M334 -90Q372 -90 383 -76T395 -33V33H373Q351 33 343 42T334 74V217H518V-55Q518 -123 473 -158T334 -193V-90ZM51 -90Q89 -90 101 -76T113 -33V33H90Q68 33 60 42T51 74V217H236V-55Q236 -123 191 -158T51 -193V-90Z"/><glyph unicode="†" horiz-adv-x="819" d="M322 410V606L354 1061L336 1077L258 1051H119V1229H258L336 1200L350 1217L322 1296V1434H500V1296L471 1217L485 1200L563 1229H700V1051H563L485 1077L467 1061L500 606V410H322Z"/><glyph unicode="‡" horiz-adv-x="821" d="M322 410V549L350 629L336 645L258 614H119V795H258L336 768L354 784L322 831V1012L354 1059L336 1075L258 1049H119V1229H258L336 1198L350 1214L322 1296V1434H500V1296L471 1214L485 1198L563 1229H700V1049H563L485 1075L467 1059L500 1012V831L467 784L485 768L563 795H700V614H563L485 645L471 629L500 549V410H322Z"/><glyph unicode="•" horiz-adv-x="913" d="M815 545Q815 470 787 405T711 291T597 214T457 186Q382 186 317 214T203 291T126 405T98 545Q98 619 126 684T203 798T317 875T457 903Q531 903 596 875T710 799T787 685T815 545Z"/><glyph unicode="…" horiz-adv-x="2048" d="M322 0V217H539V0H322ZM915 0V217H1133V0H915ZM1509 0V217H1726V0H1509Z"/><glyph unicode="‰" horiz-adv-x="1659" d="M188 614Q162 614 139 624T98 651Q81 668 71 690T61 739V1104Q61 1129 70 1150T94 1188Q111 1206 136 1217T188 1229H344Q372 1229 396 1218T438 1188Q471 1152 471 1104V739Q471 713 461 691T434 651Q417 634 394 624T344 614H188ZM336 1073Q336 1087 325 1098T299 1110H236Q220 1110 209 1099T197 1073V772Q197 755 208 743T236 731H299Q313 731 324 743T336 772V1073ZM233 0L770 1229H895L358 0H233ZM803 0Q777 0 754 10T713 37Q696 54 686 76T676 125V489Q676 514 685 536T711 575Q745 614 803 614H958Q986 614 1011 603T1053 573Q1085 538 1085 489V125Q1085 99 1076 77T1049 37Q1032 20 1008 10T958 0H803ZM950 459Q950 473 939 484T913 496H850Q834 496 823 485T811 459V158Q811 141 822 129T850 117H913Q927 117 938 129T950 158V459ZM1315 0Q1289 0 1266 10T1225 37Q1208 54 1198 76T1188 125V489Q1188 514 1197 536T1223 575Q1257 614 1315 614H1470Q1498 614 1523 603T1565 573Q1597 538 1597 489V125Q1597 99 1588 77T1561 37Q1544 20 1520 10T1470 0H1315ZM1462 459Q1462 473 1451 484T1425 496H1362Q1346 496 1335 485T1323 459V158Q1323 141 1334 129T1362 117H1425Q1439 117 1450 129T1462 158V459Z"/><glyph unicode="‹" horiz-adv-x="465" d="M238 264L76 481V582L238 799H420L266 549L250 532L266 516L420 264H238Z"/><glyph unicode="›" horiz-adv-x="465" d="M45 264L199 516L215 532L199 549L45 799H227L389 582V481L227 264H45Z"/><glyph unicode="⁄" horiz-adv-x="287" d="M-197 0L340 1229H465L-72 0H-197Z"/><glyph unicode="⁰" horiz-adv-x="532" d="M188 512Q162 512 139 521T96 549Q81 564 71 587T61 637V1104Q61 1130 71 1152T96 1192Q115 1209 139 1219T190 1229H346Q372 1229 396 1220T438 1192Q454 1176 463 1153T473 1104V637Q473 611 463 589T436 549Q419 530 396 521T346 512H188ZM338 1073Q338 1087 328 1098T301 1110H236Q220 1110 209 1099T197 1073V670Q197 653 208 641T236 629H301Q315 629 326 641T338 670V1073Z"/><glyph unicode="⁴" horiz-adv-x="532" d="M258 512V649H8V748L260 1229H395V768H504V649H395V512H258ZM258 1053L111 768H258V1053Z"/><glyph unicode="⁵" horiz-adv-x="532" d="M188 512Q138 512 104 543Q84 560 73 584T61 637V692H197V670Q197 653 208 641T236 629H301Q315 629 326 641T338 670V831Q338 838 332 844T315 850H219Q210 850 204 843T197 823H61V1229H461V1106H186V950Q197 961 212 967T238 973H346Q374 973 398 962T440 932Q473 896 473 848V637Q473 609 462 586T432 545Q397 512 346 512H188Z"/><glyph unicode="⁶" horiz-adv-x="532" d="M188 512Q162 512 139 522T98 549Q81 566 71 588T61 637V1104Q61 1129 69 1149T92 1186Q109 1206 135 1217T188 1229H346Q375 1229 400 1218T442 1186Q456 1169 464 1148T473 1104V1036H338V1073Q338 1087 327 1098T301 1110H236Q220 1110 209 1099T197 1073V938Q209 949 226 958T258 967H346Q374 967 398 957T440 926Q473 890 473 840V637Q473 611 463 588T434 547Q401 512 346 512H188ZM338 807Q338 821 327 832T301 844H236Q220 844 209 833T197 807V670Q197 653 208 641T236 629H301Q315 629 326 641T338 670V807Z"/><glyph unicode="⁷" horiz-adv-x="532" d="M158 512V745Q158 776 171 805T203 861T243 910T281 952L291 965Q294 969 301 979T317 1003T332 1030T338 1055V1106H74V1229H473V1036Q473 1004 462 976T432 923T393 875T352 834L342 823Q337 818 330 808T314 784T301 758T295 735V512H158Z"/><glyph unicode="⁸" horiz-adv-x="532" d="M184 512Q158 512 135 521T94 547Q76 564 66 587T55 637V760Q55 785 64 807T89 845T122 872T158 883V889Q140 892 123 902T92 928T70 965T61 1010V1104Q61 1129 70 1150T94 1188Q111 1206 136 1217T188 1229H346Q374 1229 398 1218T440 1188Q473 1152 473 1104V1010Q473 986 465 965T443 929T412 903T377 889V883Q395 882 413 872T445 846T469 807T479 760V637Q479 608 468 584T436 543Q419 529 397 521T352 512H184ZM338 1073Q338 1087 327 1098T301 1110H236Q220 1110 209 1099T197 1073V979Q197 962 208 950T236 938H301Q315 938 326 950T338 979V1073ZM344 791Q344 805 333 816T307 827H231Q216 827 205 816T193 791V670Q193 653 204 641T231 629H307Q321 629 332 641T344 670V791Z"/><glyph unicode="⁹" horiz-adv-x="532" d="M188 512Q165 512 144 520T106 543Q86 560 74 584T61 637V692H197V655Q197 646 203 640T219 633H315Q325 633 331 639T338 655V801Q326 790 308 782T276 774H188Q162 774 139 784T98 811Q81 828 71 851T61 901V1104Q61 1130 71 1152T98 1192Q115 1209 138 1219T188 1229H346Q374 1229 398 1218T440 1188Q473 1152 473 1104V637Q473 609 462 585T430 543Q413 529 392 521T346 512H188ZM338 1073Q338 1087 327 1098T301 1110H236Q220 1110 209 1099T197 1073V936Q197 919 208 907T236 895H301Q315 895 326 907T338 936V1073Z"/><glyph unicode="⁽" horiz-adv-x="360" d="M225 371Q187 408 155 457T98 567T61 701T47 858Q47 942 60 1014T98 1148T154 1259T225 1346H346Q317 1304 291 1258T243 1155T210 1025T197 860Q197 765 209 693T243 563T290 459T346 371H225Z"/><glyph unicode="⁾" horiz-adv-x="360" d="M14 371Q42 413 69 459T118 563T153 693T166 860Q166 953 153 1025T119 1154T70 1258T14 1346H135Q174 1309 206 1260T262 1149T299 1015T313 858Q313 774 300 702T263 568T207 457T135 371H14Z"/><glyph unicode="ⁿ" horiz-adv-x="555" d="M348 512V1073Q348 1087 337 1098T311 1110H246Q230 1110 219 1099T207 1073V512H72V1229H197V1200Q209 1211 225 1220T256 1229H356Q382 1229 407 1219T449 1190Q483 1154 483 1104V512H348Z"/><glyph unicode="₀" horiz-adv-x="532" d="M188 -154Q135 -154 96 -117Q81 -101 71 -78T61 -29V438Q61 464 71 486T96 526Q115 543 139 553T190 563H346Q372 563 396 554T438 526Q454 511 463 488T473 438V-29Q473 -55 463 -77T436 -117Q419 -135 396 -144T346 -154H188ZM338 408Q338 422 328 433T301 444H236Q220 444 209 433T197 408V4Q197 -13 208 -25T236 -37H301Q315 -37 326 -25T338 4V408Z"/><glyph unicode="₁" horiz-adv-x="389" d="M152 -154V440H61V563H287V-154H152Z"/><glyph unicode="₂" horiz-adv-x="532" d="M61 -154V25Q61 86 96 126T186 195L311 258Q319 263 328 277T338 309V408Q338 422 327 433T301 444H236Q220 444 209 433T197 408V313H61V438Q61 463 70 484T94 522Q111 542 136 552T188 563H346Q375 563 401 552T444 518Q473 484 473 438V293Q473 261 464 236T438 191T399 154T350 125L223 59Q197 46 197 6V-33H473V-154H61Z"/><glyph unicode="₃" horiz-adv-x="532" d="M188 -154Q162 -154 140 -145T100 -119Q82 -102 72 -79T61 -29V27H197V0Q197 -14 208 -25T236 -37H313Q327 -37 338 -26T350 0V104Q350 126 335 142T297 158H180V276H315Q325 276 331 283T338 299V408Q338 422 327 433T301 444H236Q220 444 209 433T197 408V371H61V438Q61 463 70 484T94 522Q111 542 136 552T188 563H346Q374 563 398 552T440 520Q473 485 473 438V344Q473 320 466 300T446 263T417 237T383 223V217Q401 216 419 207T451 181T475 142T485 94V-29Q485 -83 446 -119Q429 -134 406 -144T358 -154H188Z"/><glyph unicode="₄" horiz-adv-x="532" d="M258 -154V-16H8V82L260 563H395V102H504V-16H395V-154H258ZM258 387L111 102H258V387Z"/><glyph unicode="₅" horiz-adv-x="532" d="M188 -154Q140 -154 104 -123Q84 -106 73 -82T61 -29V27H197V4Q197 -13 208 -25T236 -37H301Q315 -37 326 -25T338 4V166Q338 172 332 178T315 184H219Q210 184 204 177T197 158H61V563H461V440H186V285Q197 296 212 301T238 307H346Q374 307 398 296T440 266Q473 231 473 182V-29Q473 -57 462 -80T432 -121Q415 -136 393 -145T346 -154H188Z"/><glyph unicode="₆" horiz-adv-x="532" d="M188 -154Q162 -154 139 -144T98 -117Q81 -100 71 -78T61 -29V438Q61 486 92 520Q109 540 135 551T188 563H346Q375 563 400 552T442 520Q456 503 464 482T473 438V371H338V408Q338 422 327 433T301 444H236Q220 444 209 433T197 408V272Q209 283 226 292T258 301H346Q374 301 398 291T440 260Q473 225 473 174V-29Q473 -55 463 -78T434 -119Q417 -136 395 -145T346 -154H188ZM338 141Q338 155 327 166T301 178H236Q220 178 209 167T197 141V4Q197 -13 208 -25T236 -37H301Q315 -37 326 -25T338 4V141Z"/><glyph unicode="₇" horiz-adv-x="532" d="M158 -154V80Q158 111 171 140T203 196T243 245T281 287L291 299Q294 303 301 313T317 337T332 364T338 389V440H74V563H473V371Q473 339 462 311T432 258T393 210T352 168L342 158Q337 153 330 142T314 118T301 92T295 70V-154H158Z"/><glyph unicode="₈" horiz-adv-x="532" d="M184 -154Q158 -154 135 -145T94 -119Q76 -102 66 -79T55 -29V94Q55 119 64 141T89 180T122 206T158 217V223Q140 226 123 236T92 263T70 299T61 344V438Q61 463 70 484T94 522Q111 541 136 552T188 563H346Q374 563 398 552T440 522Q473 487 473 438V344Q473 320 465 300T443 263T412 237T377 223V217Q395 216 413 207T445 181T469 142T479 94V-29Q479 -58 468 -82T436 -123Q419 -137 397 -145T352 -154H184ZM338 408Q338 422 327 433T301 444H236Q220 444 209 433T197 408V313Q197 296 208 284T236 272H301Q315 272 326 284T338 313V408ZM344 125Q344 139 333 150T307 162H231Q216 162 205 151T193 125V4Q193 -13 204 -25T231 -37H307Q321 -37 332 -25T344 4V125Z"/><glyph unicode="₉" horiz-adv-x="532" d="M188 -154Q165 -154 144 -146T106 -123Q86 -106 74 -82T61 -29V27H197V-10Q197 -20 203 -26T219 -33H315Q325 -33 331 -27T338 -10V135Q326 124 308 117T276 109H188Q162 109 139 118T98 145Q81 162 71 186T61 236V438Q61 464 71 486T98 526Q115 543 138 553T188 563H346Q374 563 398 552T440 522Q473 487 473 438V-29Q473 -57 462 -81T430 -123Q413 -137 392 -145T346 -154H188ZM338 408Q338 422 327 433T301 444H236Q220 444 209 433T197 408V270Q197 253 208 241T236 229H301Q315 229 326 241T338 270V408Z"/><glyph unicode="€" horiz-adv-x="819" d="M307 0Q265 0 230 15T166 57Q137 85 120 123T102 205V389H0V553H102V686H0V850H102V1024Q102 1066 118 1102T162 1167Q190 1195 227 1212T307 1229H532Q576 1229 613 1213T678 1167Q706 1139 721 1103T737 1024V942H532V993Q532 1013 517 1028T481 1044H358Q338 1044 323 1029T307 993V850H584V686H307V553H584V389H307V236Q307 216 322 200T358 184H481Q501 184 516 200T532 236V287H737V205Q737 161 720 123T674 57Q646 31 610 16T532 0H307Z"/><glyph unicode="ℓ" horiz-adv-x="819" d="M729 92Q673 52 627 26T549 0H406Q364 0 327 17T260 61Q232 89 216 126T199 205V416L55 322V504L199 598V1229Q199 1272 215 1309T260 1374Q288 1402 324 1418T403 1434H553Q590 1434 620 1421T672 1384Q700 1357 714 1317T729 1229V944Q731 853 683 778T547 645L403 551V236Q403 216 419 200T455 184H549Q580 184 626 210T729 276V92ZM485 788Q511 805 532 837T553 922V1198Q553 1218 538 1233T502 1249H455Q436 1249 420 1234T403 1198V733L485 788Z"/><glyph unicode="℗" horiz-adv-x="1352" d="M1249 506Q1249 452 1235 392T1192 274T1117 162T1008 69T862 4T676 -20Q574 -20 492 4T345 68T235 162T160 273T116 392T102 506V723Q102 777 116 836T159 954T235 1066T345 1160T491 1225T676 1249Q779 1249 861 1225T1007 1161T1116 1067T1191 955T1235 837T1249 723V506ZM1124 723Q1124 770 1113 819T1079 914T1019 1001T933 1072T819 1121T676 1139Q597 1139 533 1121T418 1073T332 1002T273 915T238 819T227 723V506Q227 435 252 361T332 226T472 127T676 88Q795 88 880 126T1019 226T1098 361T1124 506V723ZM455 258V973H768Q808 973 845 957T911 913Q939 886 955 849T971 768V668Q971 624 955 588T911 522Q882 494 846 479T766 463H618V258H455ZM807 776Q807 796 792 811T756 827H618V608H754Q774 608 789 624T807 662V776Z"/><glyph unicode="™" horiz-adv-x="1018" d="M166 965V1341L168 1356L152 1354H53V1434H377V1354H279L260 1356L264 1341V965H166ZM780 965V1315H770L694 1049H612L537 1315H524V965H432V1434H571L653 1139L735 1434H874V965H780Z"/><glyph unicode="Ω" horiz-adv-x="1239" d="M696 0V172Q777 181 823 216T892 298T920 399T926 496V985Q926 1032 910 1081T857 1169T762 1234T621 1260Q539 1260 481 1235T386 1170T331 1081T313 985V496Q313 452 318 399T346 299T415 216T543 172V0H102V184H258Q225 202 197 232T147 297T114 371T102 444V993Q102 1041 114 1093T152 1197T218 1295T316 1377T448 1433T618 1454Q713 1454 788 1433T922 1377T1020 1296T1087 1198T1125 1094T1137 993V444Q1137 409 1126 371T1093 298T1044 232T983 184H1137V0H696Z"/><glyph unicode="℮" horiz-adv-x="1556" d="M1217 965Q1217 981 1204 1001Q1138 1092 1030 1142T786 1192Q733 1192 671 1178T551 1139T443 1078T367 1001Q352 981 352 965V643Q352 638 356 635T365 631H1198Q1204 631 1210 634T1217 643V965ZM1325 240Q1274 178 1211 133T1078 58T934 14T786 0Q700 0 616 20T456 78T315 170T203 293T128 442T102 614Q102 708 129 790T204 940T317 1062T459 1153T618 1209T786 1229Q923 1229 1046 1186T1263 1060T1411 862T1466 598H365Q360 598 356 593T352 582V276Q352 262 354 249T367 225Q459 128 565 83T786 37Q916 37 1028 88T1227 240H1325Z"/><glyph unicode="⅓" horiz-adv-x="1186" d="M152 512V1106H61V1229H287V512H152ZM193 0L729 1229H854L317 0H193ZM842 0Q787 0 754 35Q735 52 725 75T715 125V180H850V154Q850 140 861 129T889 117H967Q981 117 992 128T1004 154V258Q1004 280 988 295T950 311H834V430H969Q978 430 984 436T991 453V561Q991 575 980 586T954 598H889Q873 598 862 587T850 561V524H715V592Q715 640 748 676Q765 696 789 706T842 717H999Q1027 717 1052 706T1094 674Q1109 657 1117 637T1126 592V498Q1126 474 1119 453T1099 417T1070 391T1036 377V371Q1054 370 1072 360T1105 334T1129 295T1139 248V125Q1139 97 1129 75T1100 35Q1083 19 1060 10T1012 0H842Z"/><glyph unicode="⅔" horiz-adv-x="1329" d="M61 512V690Q61 752 96 792T186 860L311 924Q319 929 328 942T338 975V1073Q338 1087 327 1098T301 1110H236Q220 1110 209 1099T197 1073V979H61V1104Q61 1129 70 1150T94 1188Q111 1208 136 1218T188 1229H346Q375 1229 401 1217T444 1184Q473 1149 473 1104V958Q473 895 438 856T350 791L223 725Q197 712 197 672V633H473V512H61ZM336 0L872 1229H997L461 0H336ZM985 0Q932 0 897 35Q878 52 868 75T858 125V180H993V154Q993 140 1005 129T1032 117H1110Q1124 117 1135 128T1147 154V258Q1147 280 1131 295T1094 311H977V430H1112Q1121 430 1128 436T1135 453V561Q1135 575 1124 586T1098 598H1032Q1017 598 1005 587T993 561V524H858V592Q858 640 891 676Q908 696 932 706T985 717H1143Q1171 717 1195 706T1237 674Q1252 657 1261 637T1270 592V498Q1270 474 1263 453T1243 417T1214 391T1180 377V371Q1198 370 1216 360T1248 334T1272 295T1282 248V125Q1282 69 1243 35Q1226 19 1203 10T1155 0H985Z"/><glyph unicode="⅛" horiz-adv-x="1190" d="M152 512V1106H61V1229H287V512H152ZM193 0L729 1229H854L317 0H193ZM840 0Q814 0 791 9T750 35Q731 52 721 75T711 125V248Q711 273 720 295T744 333T777 360T813 371V377Q795 380 778 390T748 416T726 453T717 498V592Q717 640 750 676Q767 694 791 705T844 717H1001Q1029 717 1054 706T1096 676Q1111 659 1119 638T1128 592V498Q1128 474 1120 453T1098 417T1067 391T1032 377V371Q1050 370 1068 360T1101 334T1125 295T1135 248V125Q1135 96 1124 72T1092 31Q1075 17 1053 9T1008 0H840ZM993 561Q993 575 982 586T956 598H891Q875 598 864 587T852 561V467Q852 450 863 438T891 426H956Q970 426 981 438T993 467V561ZM999 279Q999 293 988 304T963 315H887Q871 315 860 304T848 279V158Q848 141 859 129T887 117H963Q977 117 988 129T999 158V279Z"/><glyph unicode="⅜" horiz-adv-x="1333" d="M188 512Q135 512 100 547Q82 564 72 587T61 637V692H197V666Q197 652 208 641T236 629H313Q327 629 338 640T350 666V770Q350 792 335 807T297 823H180V942H315Q325 942 331 948T338 965V1073Q338 1087 327 1098T301 1110H236Q220 1110 209 1099T197 1073V1036H61V1104Q61 1129 70 1150T94 1188Q111 1208 136 1218T188 1229H346Q374 1229 398 1218T440 1186Q456 1169 464 1149T473 1104V1010Q473 986 466 965T446 929T417 903T383 889V883Q401 882 419 872T451 846T475 807T485 760V637Q485 581 446 547Q429 531 406 522T358 512H188ZM336 0L872 1229H997L461 0H336ZM983 0Q957 0 934 9T893 35Q874 52 864 75T854 125V248Q854 273 863 295T887 333T920 360T956 371V377Q938 380 921 390T891 416T869 453T860 498V592Q860 640 893 676Q910 694 934 705T987 717H1145Q1173 717 1197 706T1239 676Q1272 640 1272 592V498Q1272 474 1264 453T1242 417T1211 391T1176 377V371Q1194 370 1212 360T1244 334T1268 295T1278 248V125Q1278 96 1267 72T1235 31Q1218 17 1196 9T1151 0H983ZM1137 561Q1137 575 1126 586T1100 598H1034Q1019 598 1007 587T995 561V467Q995 450 1007 438T1034 426H1100Q1114 426 1125 438T1137 467V561ZM1143 279Q1143 293 1132 304T1106 315H1030Q1015 315 1003 304T991 279V158Q991 141 1003 129T1030 117H1106Q1120 117 1131 129T1143 158V279Z"/><glyph unicode="⅝" horiz-adv-x="1333" d="M188 512Q138 512 104 543Q84 560 73 584T61 637V692H197V670Q197 653 208 641T236 629H301Q315 629 326 641T338 670V831Q338 838 332 844T315 850H219Q210 850 204 843T197 823H61V1229H461V1106H186V950Q197 961 212 967T238 973H346Q374 973 398 962T440 932Q473 896 473 848V637Q473 609 462 586T432 545Q397 512 346 512H188ZM336 0L872 1229H997L461 0H336ZM983 0Q957 0 934 9T893 35Q874 52 864 75T854 125V248Q854 273 863 295T887 333T920 360T956 371V377Q938 380 921 390T891 416T869 453T860 498V592Q860 640 893 676Q910 694 934 705T987 717H1145Q1173 717 1197 706T1239 676Q1272 640 1272 592V498Q1272 474 1264 453T1242 417T1211 391T1176 377V371Q1194 370 1212 360T1244 334T1268 295T1278 248V125Q1278 96 1267 72T1235 31Q1218 17 1196 9T1151 0H983ZM1137 561Q1137 575 1126 586T1100 598H1034Q1019 598 1007 587T995 561V467Q995 450 1007 438T1034 426H1100Q1114 426 1125 438T1137 467V561ZM1143 279Q1143 293 1132 304T1106 315H1030Q1015 315 1003 304T991 279V158Q991 141 1003 129T1030 117H1106Q1120 117 1131 129T1143 158V279Z"/><glyph unicode="⅞" horiz-adv-x="1221" d="M158 512V745Q158 776 171 805T203 861T243 910T281 952L291 965Q294 969 301 979T317 1003T332 1030T338 1055V1106H74V1229H473V1036Q473 1004 462 976T432 923T393 875T352 834L342 823Q337 818 330 808T314 784T301 758T295 735V512H158ZM223 0L760 1229H885L348 0H223ZM870 0Q844 0 821 9T780 35Q762 52 752 75T741 125V248Q741 273 750 295T775 333T808 360T844 371V377Q826 380 809 390T779 416T757 453T748 498V592Q748 617 756 638T780 676Q797 694 822 705T874 717H1032Q1060 717 1084 706T1126 676Q1159 640 1159 592V498Q1159 474 1151 453T1129 417T1098 391T1063 377V371Q1081 370 1099 360T1131 334T1155 295T1165 248V125Q1165 96 1154 72T1122 31Q1105 17 1083 9T1038 0H870ZM1024 561Q1024 575 1013 586T987 598H922Q906 598 895 587T883 561V467Q883 450 894 438T922 426H987Q1001 426 1012 438T1024 467V561ZM1030 279Q1030 293 1019 304T993 315H918Q902 315 891 304T879 279V158Q879 141 890 129T918 117H993Q1007 117 1018 129T1030 158V279Z"/><glyph unicode="∂" horiz-adv-x="862" d="M240 0Q198 0 163 16T105 60T72 125T70 205L178 819Q186 861 209 898T264 964T337 1008T420 1024H457L524 1004L272 1434H508L766 963Q785 929 793 895T793 819L684 205Q676 163 654 126T599 60T526 16T444 0H240ZM584 788Q587 808 574 824T541 840H438Q418 840 400 824T379 788L281 236Q277 216 290 200T324 184H426Q446 184 464 200T485 236L584 788Z"/><glyph unicode="∆" horiz-adv-x="1145" d="M63 0V145L457 1434H688L1081 147V0H63ZM586 1143L571 1184L557 1143L295 184H850L586 1143Z"/><glyph unicode="∏" horiz-adv-x="1204" d="M831 -205V1245H375V-205H170V1245H31V1434H1174V1245H1034V-205H831Z"/><glyph unicode="∑" horiz-adv-x="1145" d="M94 -205V-12L612 608L631 618L612 631L94 1245V1434H1065V1249H340L821 684V543L344 -20H1065V-205H94Z"/><glyph unicode="−" horiz-adv-x="819" d="M82 557V725H737V557H82Z"/><glyph unicode="√" horiz-adv-x="1034" d="M481 0L236 856H61V1024H381L559 332L948 1628H1141L614 0H481Z"/><glyph unicode="∞" horiz-adv-x="1227" d="M838 371Q825 371 802 383T748 417T683 468T612 530Q577 498 543 469T479 418T426 384T389 371H289Q236 371 189 393T106 452T50 535T29 627V659Q29 705 49 750T105 832T188 890T289 913H389Q402 913 425 901T477 868T541 819T612 758Q649 789 684 817T749 867T802 900T838 913H938Q991 913 1038 891T1120 832T1177 751T1198 659V627Q1198 581 1177 535T1121 453T1038 394T938 371H838ZM1020 674Q1020 702 998 723T942 745H864Q856 745 844 737T816 715T779 683T737 643Q759 622 779 604T815 571T844 549T864 541H942Q959 541 973 547T997 562T1014 584T1020 610V674ZM360 541Q377 541 410 571T489 643Q467 664 447 682T411 715T382 737T360 745H283Q251 745 229 724T207 674V610Q207 584 229 563T283 541H360Z"/><glyph unicode="∫" horiz-adv-x="668" d="M0 -248V-55H129Q144 -55 156 -48T178 -30T192 -3T199 27L262 1180Q265 1231 285 1277T339 1358T415 1413T506 1434H668V1249H539Q510 1249 490 1225T469 1169L408 6Q405 -45 384 -91T330 -172T255 -227T164 -248H0Z"/><glyph unicode="≈" horiz-adv-x="819" d="M389 707Q364 719 345 728T311 737Q291 737 269 715T213 645L70 731Q104 789 133 827T191 887T248 919T309 928Q337 928 363 921T412 901L438 887Q463 874 482 865T516 856Q536 856 558 879T614 948L758 862Q724 805 694 767T636 707T578 675T518 666Q490 666 465 673T416 692L389 707ZM389 379Q364 391 345 400T311 410Q291 410 269 387T213 317L70 403Q104 461 133 499T191 559T248 591T309 600Q337 600 363 593T412 573L438 559Q463 547 482 538T516 528Q536 528 558 551T614 621L758 535Q724 477 694 439T636 379T578 347T518 338Q490 338 465 345T416 365L389 379Z"/><glyph unicode="≠" horiz-adv-x="819" d="M354 391L274 256H96L176 391H53V559H274L371 723H53V891H467L547 1024H725L645 891H768V723H549L451 559H768V391H354Z"/><glyph unicode="≤" horiz-adv-x="819" d="M53 635V748L768 1036V850L336 705L287 694L336 682L768 537V354L53 635ZM53 182V350H768V182H53Z"/><glyph unicode="≥" horiz-adv-x="819" d="M53 354V537L485 682L535 694L485 705L53 850V1036L768 748V635L53 354ZM53 182V350H768V182H53Z"/><glyph unicode="◊" horiz-adv-x="819" d="M313 0L0 502V735L313 1229H508L819 735V502L508 0H313ZM674 616L410 1036L145 616L410 193L674 616Z"/><glyph unicode="" horiz-adv-x="2253" d="M2150 614Q2150 473 2114 342T2011 98T1851 -109T1643 -270T1398 -373T1126 -410Q985 -410 854 -374T610 -270T403 -110T242 97T139 342T102 614Q102 755 138 886T242 1131T402 1338T609 1498T854 1601T1126 1638Q1267 1638 1398 1602T1643 1499T1850 1339T2010 1131T2113 886T2150 614ZM1794 659Q1816 660 1836 663T1871 674T1896 694T1905 725Q1905 749 1894 765T1864 790T1822 804T1776 809H1536V467H1796Q1815 467 1836 471T1876 485T1905 515T1917 563Q1917 587 1907 603T1880 628T1841 641T1794 645V659ZM1378 801V807H1286L1206 588L1112 807H985V801L1124 469H1239L1378 801ZM831 807H680L596 618L502 807H336V467H420V684H434L535 469H608L705 684H719V467H831V807ZM1667 672V752H1722Q1742 752 1754 741T1767 715Q1767 672 1726 672H1667ZM1667 526V610H1710Q1735 610 1751 601T1767 567Q1767 543 1755 535T1720 526H1667Z"/><glyph unicode="ﬀ" horiz-adv-x="1014" d="M623 0V840H346V0H141V840H39V1024H141V1229Q141 1272 158 1308T203 1372Q231 1401 267 1418T346 1434H520V1249H397Q377 1249 362 1234T346 1198V1024H623V1229Q623 1272 639 1308T684 1372Q712 1401 748 1418T827 1434H1001V1249H879Q859 1249 843 1234T827 1198V1024H1001V840H827V0H623Z"/><glyph unicode="ﬁ" horiz-adv-x="954" d="M141 0V840H39V1024H141V1229Q141 1272 158 1308T203 1372Q231 1401 267 1418T346 1434H520V1249H397Q377 1249 362 1234T346 1198V1024H520V840H346V0H141ZM641 1229V1434H846V1229H641ZM641 0V1024H846V0H641Z"/><glyph unicode="ﬂ" horiz-adv-x="975" d="M141 0V840H39V1024H141V1229Q141 1272 158 1308T203 1372Q231 1401 267 1418T346 1434H520V1249H397Q377 1249 362 1234T346 1198V1024H520V840H346V0H141ZM821 0Q778 0 742 16T676 61Q648 89 632 125T616 205V1434H821V236Q821 225 826 215T840 197Q846 190 855 187T874 184H965V0H821Z"/><glyph unicode="ﬃ" horiz-adv-x="1436" d="M623 0V840H346V0H141V840H39V1024H141V1229Q141 1272 158 1308T203 1372Q231 1401 267 1418T346 1434H520V1249H397Q377 1249 362 1234T346 1198V1024H623V1229Q623 1272 639 1308T684 1372Q712 1401 748 1418T827 1434H1001V1249H879Q859 1249 843 1234T827 1198V1024H1001V840H827V0H623ZM1122 0V1024H1327V0H1122ZM1122 1229V1434H1327V1229H1122Z"/><glyph unicode="ﬄ" horiz-adv-x="1456" d="M623 0V840H346V0H141V840H39V1024H141V1229Q141 1272 158 1308T203 1372Q231 1401 267 1418T346 1434H520V1249H397Q377 1249 362 1234T346 1198V1024H623V1229Q623 1272 639 1308T684 1372Q712 1401 748 1418T827 1434H1001V1249H879Q859 1249 843 1234T827 1198V1024H1001V840H827V0H623ZM1303 0Q1259 0 1223 16T1157 61Q1129 89 1114 125T1098 205V1434H1303V236Q1303 225 1308 215T1321 197Q1327 190 1336 187T1356 184H1446V0H1303Z"/></font>
</defs>
</svg>
