# This file uses centimeters as units for non-parametric coordinates.

mtllib Hat.mtl
g default
v -23.068619 1608.004333 23.068619
v 23.068619 1608.004333 23.068619
v 23.068619 1608.004333 -23.068619
v -23.068619 1608.004333 -23.068619
v 4.330757 1677.864868 0.000000
v 117.398376 1423.868835 -113.067627
v 117.398376 1423.868835 113.067627
v 0.000000 1677.864868 -4.330757
v -113.067627 1423.868835 -117.398376
v 113.067627 1423.868835 -117.398376
v -4.330757 1677.864868 0.000000
v -117.398376 1423.868835 113.067627
v -117.398376 1423.868835 -113.067627
v 0.000000 1677.864868 4.330757
v 113.067627 1423.868835 117.398376
v -113.067627 1423.868835 117.398376
v -110.328125 1425.107605 110.584717
v -116.536377 1421.120056 117.619080
v -115.425415 1422.265381 117.861450
v 115.425415 1422.265381 117.861450
v 116.536377 1421.120056 117.619080
v 110.328125 1425.107605 110.584717
v -110.584717 1425.107605 -110.328125
v -117.619080 1421.120056 -116.536377
v -117.861450 1422.265381 -115.425415
v -117.861450 1422.265381 115.425415
v -117.619080 1421.120056 116.536377
v -110.584717 1425.107605 110.328125
v -2.436050 1681.513184 0.270672
v -1.082689 1682.729248 1.082689
v -0.270672 1681.513184 2.436050
v -115.574158 1422.494446 117.739563
v -117.131470 1422.036316 117.131470
v -117.739563 1422.494446 115.574158
v 110.584717 1425.107605 110.328125
v 117.619080 1421.120056 116.536377
v 117.861450 1422.265381 115.425415
v 117.861450 1422.265381 -115.425415
v 117.619080 1421.120056 -116.536377
v 110.584717 1425.107605 -110.328125
v 0.270672 1681.513184 2.436050
v 1.082689 1682.729248 1.082689
v 2.436050 1681.513184 0.270672
v 117.739563 1422.494446 115.574158
v 117.131470 1422.036316 117.131470
v 115.574158 1422.494446 117.739563
v -115.425415 1422.265381 -117.861450
v -116.536377 1421.120056 -117.619080
v -110.328125 1425.107605 -110.584717
v 110.328125 1425.107605 -110.584717
v 116.536377 1421.120056 -117.619080
v 115.425415 1422.265381 -117.861450
v 2.436050 1681.513184 -0.270672
v 1.082689 1682.729248 -1.082689
v 0.270672 1681.513184 -2.436050
v 115.574158 1422.494446 -117.739563
v 117.131470 1422.036316 -117.131470
v 117.739563 1422.494446 -115.574158
v -117.739563 1422.494446 -115.574158
v -117.131470 1422.036316 -117.131470
v -115.574158 1422.494446 -117.739563
v -0.270672 1681.513184 -2.436050
v -1.082689 1682.729248 -1.082689
v -2.436050 1681.513184 -0.270672
v 0.667026 1644.778687 -19.059250
v -21.017929 1640.378784 0.211906
v 0.625325 1639.505615 21.406601
v 15.275276 1653.279053 0.569427
vt 0.000000 0.000000
vt 1.000000 0.000000
vt 1.000000 1.000000
vt 0.000000 1.000000
vt 0.000000 0.000000
vt 1.000000 0.000000
vt 0.500000 1.000000
vt 0.000000 0.000000
vt 1.000000 0.000000
vt 0.500000 1.000000
vt 0.000000 0.000000
vt 1.000000 0.000000
vt 0.500000 1.000000
vt 0.000000 0.000000
vt 1.000000 0.000000
vt 0.500000 1.000000
vt 0.000000 0.000000
vt 1.000000 0.000000
vt 1.000000 1.000000
vt 0.000000 1.000000
vt 0.000000 0.000000
vt 1.000000 0.000000
vt 1.000000 1.000000
vt 0.000000 1.000000
vt 0.000000 0.000000
vt 1.000000 1.000000
vt 0.000000 1.000000
vt 0.000000 0.000000
vt 1.000000 0.000000
vt 1.000000 1.000000
vt 0.000000 0.000000
vt 1.000000 0.000000
vt 1.000000 1.000000
vt 0.000000 1.000000
vt 0.000000 0.000000
vt 1.000000 0.000000
vt 1.000000 1.000000
vt 0.000000 1.000000
vt 0.000000 0.000000
vt 1.000000 0.000000
vt 1.000000 1.000000
vt 0.000000 1.000000
vt 0.000000 0.000000
vt 1.000000 1.000000
vt 0.000000 1.000000
vt 0.000000 0.000000
vt 1.000000 0.000000
vt 1.000000 1.000000
vt 0.000000 1.000000
vt 0.000000 0.000000
vt 1.000000 0.000000
vt 1.000000 1.000000
vt 0.000000 1.000000
vt 0.000000 0.000000
vt 1.000000 0.000000
vt 1.000000 1.000000
vt 0.000000 1.000000
vt 0.000000 0.000000
vt 1.000000 0.000000
vt 1.000000 1.000000
vt 0.000000 1.000000
vt 0.000000 0.000000
vt 1.000000 1.000000
vt 0.000000 1.000000
vt 0.000000 0.000000
vt 1.000000 0.000000
vt 1.000000 1.000000
vt 0.000000 1.000000
vt 0.000000 0.000000
vt 1.000000 0.000000
vt 1.000000 1.000000
vt 0.000000 1.000000
vt 0.000000 0.000000
vt 1.000000 0.000000
vt 1.000000 1.000000
vt 0.000000 1.000000
vt 0.000000 0.000000
vt 1.000000 0.000000
vt 1.000000 1.000000
vt 0.000000 1.000000
vt 0.000000 0.000000
vt 1.000000 0.000000
vt 1.000000 1.000000
vt 0.000000 1.000000
vt 0.000000 0.000000
vt 1.000000 0.000000
vt 1.000000 1.000000
vt 0.000000 1.000000
vt 0.000000 0.000000
vt 1.000000 0.000000
vt 1.000000 1.000000
vt 0.000000 1.000000
vt 0.000000 0.000000
vt 1.000000 1.000000
vt 0.000000 1.000000
vt 0.000000 0.000000
vt 1.000000 0.000000
vt 1.000000 1.000000
vt 0.000000 1.000000
vt 1.000000 0.000000
vt 1.000000 1.000000
vt 0.000000 1.000000
vt 0.000000 0.000000
vt 1.000000 0.000000
vt 1.000000 1.000000
vt 0.000000 1.000000
vt 0.000000 0.000000
vt 1.000000 0.000000
vt 1.000000 1.000000
vt 0.000000 1.000000
vt 0.000000 0.000000
vt 1.000000 0.000000
vt 1.000000 1.000000
vt 0.000000 1.000000
vt 0.000000 0.000000
vt 1.000000 0.000000
vt 1.000000 1.000000
vt 0.000000 1.000000
vt 0.000000 0.000000
vt 1.000000 0.000000
vt 1.000000 1.000000
vt 0.000000 1.000000
vt 0.000000 0.000000
vt 1.000000 0.000000
vt 1.000000 1.000000
vt 0.000000 1.000000
vt 0.000000 0.000000
vt 1.000000 0.000000
vt 1.000000 1.000000
vt 0.000000 1.000000
vt 0.000000 0.000000
vt 1.000000 0.000000
vt 1.000000 1.000000
vt 0.000000 1.000000
vt 0.000000 0.000000
vt 1.000000 0.000000
vt 1.000000 1.000000
vt 0.000000 1.000000
vt 0.000000 0.000000
vt 1.000000 1.000000
vt 1.000000 0.000000
vt 0.000000 1.000000
vt 1.000000 1.000000
vt 1.000000 0.000000
vt 0.000000 1.000000
vt 1.000000 0.000000
vt 1.000000 1.000000
vt 0.000000 1.000000
vt 1.000000 1.000000
vt 0.000000 1.000000
vt 1.000000 0.000000
vt 0.000000 1.000000
vt 1.000000 0.000000
vt 1.000000 1.000000
vt 0.000000 1.000000
vt 0.000000 1.000000
vt 1.000000 1.000000
vt 0.000000 0.000000
vt 1.000000 1.000000
vt 0.000000 1.000000
vt 1.000000 1.000000
vt 0.000000 1.000000
vt 1.000000 1.000000
vt 0.000000 1.000000
vt 1.000000 1.000000
vt 1.000000 1.000000
vt 0.000000 1.000000
vt 1.000000 1.000000
vt 0.000000 1.000000
vt 0.000000 0.000000
vt 1.000000 0.000000
vt 1.000000 0.000000
vt 1.000000 0.000000
vt 1.000000 0.000000
vt 0.000000 0.000000
vt 1.000000 0.000000
vt 1.000000 0.000000
vt 0.000000 0.000000
vt 1.000000 0.000000
vt 0.000000 0.000000
vt 1.000000 0.000000
vt 1.000000 0.000000
vt 1.000000 0.000000
vt 0.000000 1.000000
vt 1.000000 1.000000
vt 0.000000 0.000000
vt 1.000000 1.000000
vt 1.000000 0.000000
vt 0.000000 1.000000
vt 1.000000 0.000000
vt 1.000000 0.000000
vt 0.000000 0.000000
vt 1.000000 1.000000
vt 0.000000 0.000000
vt 1.000000 1.000000
vt 0.000000 0.000000
vt 1.000000 1.000000
vn 0.000000 -1.000000 0.000000
vn 0.000000 -1.000000 0.000000
vn 0.000000 -1.000000 0.000000
vn 0.000000 -1.000000 0.000000
vn 0.913570 0.406681 -0.000005
vn 0.913570 0.406681 -0.000005
vn 0.913570 0.406681 -0.000005
vn 0.000001 0.406681 -0.913570
vn 0.000001 0.406681 -0.913570
vn 0.000001 0.406681 -0.913570
vn -0.913570 0.406682 0.000006
vn -0.913570 0.406682 0.000006
vn -0.913570 0.406682 0.000006
vn 0.000002 0.406682 0.913570
vn 0.000002 0.406682 0.913570
vn 0.000002 0.406682 0.913570
vn 0.000000 -0.869946 -0.493148
vn 0.000000 -0.869946 -0.493148
vn 0.000000 -0.869946 -0.493148
vn 0.000000 -0.869946 -0.493148
vn 0.000000 -0.207021 0.978337
vn 0.000000 -0.207021 0.978337
vn 0.000000 -0.207021 0.978337
vn 0.000000 -0.207021 0.978337
vn 0.000000 0.277450 0.960740
vn 0.000000 0.277450 0.960740
vn 0.000000 0.277450 0.960740
vn 0.000000 0.277450 0.960740
vn 0.000000 -0.431631 -0.902050
vn 0.000000 -0.431631 -0.902050
vn 0.000000 -0.431631 -0.902050
vn 0.000000 -0.431631 -0.902050
vn 0.902050 -0.431631 0.000000
vn 0.902050 -0.431631 0.000000
vn 0.902050 -0.431631 0.000000
vn 0.902050 -0.431631 0.000000
vn 0.493144 -0.869947 0.000000
vn 0.493145 -0.869947 0.000000
vn 0.493145 -0.869947 0.000000
vn 0.493144 -0.869947 0.000000
vn -0.978334 -0.207032 0.000000
vn -0.978334 -0.207032 0.000000
vn -0.978334 -0.207032 0.000000
vn -0.978334 -0.207032 0.000000
vn -0.960737 0.277462 0.000000
vn -0.960737 0.277462 0.000000
vn -0.960737 0.277462 0.000000
vn -0.960737 0.277462 0.000000
vn -0.126288 0.449801 0.884155
vn -0.126288 0.449801 0.884155
vn -0.126288 0.449801 0.884155
vn -0.126288 0.449801 0.884155
vn -0.884154 0.449803 0.126292
vn -0.884154 0.449803 0.126292
vn -0.884154 0.449803 0.126292
vn -0.884154 0.449803 0.126292
vn -0.731805 0.521230 0.439068
vn -0.731805 0.521230 0.439068
vn -0.731805 0.521230 0.439068
vn -0.731805 0.521230 0.439068
vn -0.439080 0.521218 0.731806
vn -0.439080 0.521218 0.731806
vn -0.439080 0.521218 0.731806
vn -0.439080 0.521218 0.731806
vn 0.960737 0.277462 0.000000
vn 0.960737 0.277462 0.000000
vn 0.960737 0.277462 0.000000
vn 0.960737 0.277462 0.000000
vn -0.902050 -0.431631 0.000000
vn -0.902050 -0.431631 0.000000
vn -0.902050 -0.431631 0.000000
vn -0.902050 -0.431631 0.000000
vn -0.493144 -0.869947 0.000000
vn -0.493145 -0.869947 0.000000
vn -0.493145 -0.869947 0.000000
vn -0.493144 -0.869947 0.000000
vn 0.978334 -0.207032 0.000000
vn 0.978334 -0.207032 0.000000
vn 0.978334 -0.207032 0.000000
vn 0.978334 -0.207032 0.000000
vn 0.884154 0.449803 0.126292
vn 0.884154 0.449803 0.126292
vn 0.884154 0.449803 0.126292
vn 0.884154 0.449803 0.126292
vn 0.126288 0.449801 0.884155
vn 0.126288 0.449801 0.884155
vn 0.126288 0.449801 0.884155
vn 0.126288 0.449801 0.884155
vn 0.439080 0.521218 0.731806
vn 0.439080 0.521218 0.731806
vn 0.439080 0.521218 0.731806
vn 0.439080 0.521218 0.731806
vn 0.731805 0.521230 0.439068
vn 0.731805 0.521230 0.439068
vn 0.731805 0.521230 0.439068
vn 0.731805 0.521230 0.439068
vn 0.000000 -0.431631 0.902050
vn 0.000000 -0.431631 0.902050
vn 0.000000 -0.431631 0.902050
vn 0.000000 -0.431631 0.902050
vn 0.000000 -0.869946 0.493148
vn 0.000000 -0.869946 0.493148
vn 0.000000 -0.869946 0.493148
vn 0.000000 -0.869946 0.493148
vn 0.000000 0.277450 -0.960740
vn 0.000000 0.277450 -0.960740
vn 0.000000 0.277450 -0.960740
vn 0.000000 0.277450 -0.960740
vn 0.000000 -0.207021 -0.978337
vn 0.000000 -0.207021 -0.978337
vn 0.000000 -0.207021 -0.978337
vn 0.000000 -0.207021 -0.978337
vn 0.126288 0.449801 -0.884155
vn 0.126288 0.449801 -0.884155
vn 0.126288 0.449801 -0.884155
vn 0.126288 0.449801 -0.884155
vn 0.439080 0.521218 -0.731806
vn 0.439080 0.521218 -0.731806
vn 0.439080 0.521218 -0.731806
vn 0.439080 0.521218 -0.731806
vn 0.884154 0.449803 -0.126292
vn 0.884154 0.449803 -0.126292
vn 0.884154 0.449803 -0.126292
vn 0.884154 0.449803 -0.126292
vn 0.731805 0.521230 -0.439068
vn 0.731805 0.521230 -0.439068
vn 0.731805 0.521230 -0.439068
vn 0.731805 0.521230 -0.439068
vn -0.126288 0.449801 -0.884155
vn -0.126288 0.449801 -0.884155
vn -0.126288 0.449801 -0.884155
vn -0.126288 0.449801 -0.884155
vn -0.439080 0.521218 -0.731806
vn -0.439080 0.521218 -0.731806
vn -0.439080 0.521218 -0.731806
vn -0.439080 0.521218 -0.731807
vn -0.884154 0.449803 -0.126292
vn -0.884154 0.449803 -0.126292
vn -0.884154 0.449803 -0.126292
vn -0.884154 0.449803 -0.126292
vn -0.731805 0.521230 -0.439068
vn -0.731805 0.521230 -0.439068
vn -0.731805 0.521230 -0.439068
vn -0.731805 0.521230 -0.439068
vn -0.408243 0.207885 0.888888
vn -0.408243 0.207885 0.888888
vn -0.408243 0.207885 0.888888
vn -0.408243 0.207885 0.888888
vn -0.103835 0.413888 0.904387
vn -0.103835 0.413888 0.904387
vn -0.103835 0.413888 0.904387
vn 0.218769 -0.950934 -0.218782
vn 0.218769 -0.950934 -0.218782
vn 0.218769 -0.950934 -0.218782
vn 0.218769 -0.950934 -0.218782
vn 0.277033 -0.920070 -0.276992
vn 0.277033 -0.920070 -0.276992
vn 0.277033 -0.920070 -0.276992
vn 0.585889 -0.559883 -0.585889
vn 0.585888 -0.559883 -0.585888
vn 0.585888 -0.559883 -0.585888
vn -0.888890 0.207891 0.408235
vn -0.888890 0.207891 0.408235
vn -0.888890 0.207891 0.408235
vn -0.888890 0.207891 0.408235
vn -0.904414 0.413815 0.103885
vn -0.904414 0.413815 0.103885
vn -0.904414 0.413815 0.103885
vn 0.904414 0.413815 0.103885
vn 0.904414 0.413815 0.103885
vn 0.904414 0.413815 0.103885
vn -0.277005 -0.919969 -0.277352
vn -0.277005 -0.919969 -0.277352
vn -0.277005 -0.919969 -0.277352
vn -0.585900 -0.559892 -0.585869
vn -0.585900 -0.559892 -0.585869
vn -0.585900 -0.559892 -0.585869
vn -0.218773 -0.950944 -0.218733
vn -0.218773 -0.950944 -0.218733
vn -0.218773 -0.950944 -0.218733
vn -0.218773 -0.950944 -0.218733
vn 0.408245 0.207887 0.888886
vn 0.408245 0.207887 0.888886
vn 0.408245 0.207887 0.888886
vn 0.408245 0.207887 0.888886
vn 0.103834 0.413846 0.904406
vn 0.103834 0.413846 0.904406
vn 0.103834 0.413846 0.904406
vn 0.888891 0.207896 0.408232
vn 0.888891 0.207896 0.408232
vn 0.888891 0.207896 0.408232
vn 0.888891 0.207896 0.408232
vn -0.585900 -0.559892 0.585869
vn -0.585900 -0.559892 0.585869
vn -0.585900 -0.559892 0.585869
vn 0.888890 0.207891 -0.408235
vn 0.888890 0.207891 -0.408235
vn 0.888890 0.207891 -0.408235
vn 0.888890 0.207891 -0.408235
vn 0.904414 0.413815 -0.103885
vn 0.904414 0.413815 -0.103885
vn 0.904414 0.413815 -0.103885
vn -0.218768 -0.950924 0.218824
vn -0.218768 -0.950924 0.218824
vn -0.218768 -0.950924 0.218824
vn -0.218768 -0.950924 0.218824
vn 0.103835 0.413888 -0.904387
vn 0.103835 0.413888 -0.904387
vn 0.103835 0.413888 -0.904387
vn -0.277036 -0.920071 0.276986
vn -0.277036 -0.920071 0.276986
vn -0.277036 -0.920071 0.276986
vn 0.408243 0.207885 -0.888888
vn 0.408243 0.207885 -0.888888
vn 0.408243 0.207885 -0.888888
vn 0.408243 0.207885 -0.888888
vn -0.888891 0.207896 -0.408232
vn -0.888891 0.207896 -0.408232
vn -0.888891 0.207896 -0.408232
vn -0.888891 0.207896 -0.408232
vn -0.904414 0.413815 -0.103885
vn -0.904414 0.413815 -0.103885
vn -0.904414 0.413815 -0.103885
vn -0.103835 0.413888 -0.904387
vn -0.103835 0.413888 -0.904387
vn -0.103835 0.413888 -0.904387
vn 0.585888 -0.559883 0.585888
vn 0.585888 -0.559883 0.585888
vn 0.585889 -0.559883 0.585889
vn 0.218772 -0.950942 0.218741
vn 0.218772 -0.950943 0.218741
vn 0.218772 -0.950942 0.218741
vn 0.218772 -0.950943 0.218741
vn 0.277013 -0.920002 0.277236
vn 0.277013 -0.920002 0.277236
vn 0.277013 -0.920002 0.277236
vn -0.408247 0.207891 -0.888885
vn -0.408247 0.207891 -0.888885
vn -0.408247 0.207891 -0.888885
vn -0.408247 0.207891 -0.888885
vn 0.000000 1.000000 0.000000
vn 0.000000 1.000000 0.000000
vn 0.000000 1.000000 0.000000
vn 0.000000 1.000000 0.000000
vn 0.668369 0.743830 0.000000
vn 0.668369 0.743830 0.000000
vn 0.668369 0.743830 0.000000
vn 0.668369 0.743830 0.000000
vn 0.000000 0.743822 0.668378
vn 0.000000 0.743822 0.668378
vn 0.000000 0.743822 0.668378
vn 0.000000 0.743822 0.668378
vn 0.000000 0.460882 0.887461
vn 0.000000 0.460882 0.887461
vn 0.000000 0.460882 0.887461
vn -0.668369 0.743830 0.000000
vn -0.668369 0.743830 0.000000
vn -0.668369 0.743830 0.000000
vn -0.668369 0.743830 0.000000
vn -0.887457 0.460890 0.000000
vn -0.887457 0.460890 0.000000
vn -0.887457 0.460890 0.000000
vn 0.000000 0.743822 -0.668378
vn 0.000000 0.743822 -0.668378
vn 0.000000 0.743822 -0.668378
vn 0.000000 0.743822 -0.668378
vn 0.000000 0.460882 -0.887461
vn 0.000000 0.460882 -0.887461
vn 0.000000 0.460882 -0.887461
vn 0.887457 0.460890 0.000000
vn 0.887457 0.460890 0.000000
vn 0.887457 0.460890 0.000000
vn -0.000001 0.406680 -0.913571
vn -0.000001 0.406680 -0.913571
vn -0.000001 0.406680 -0.913571
vn 0.913570 0.406681 0.000005
vn 0.913570 0.406681 0.000005
vn 0.913570 0.406681 0.000005
vn -0.913570 0.406682 -0.000007
vn -0.913570 0.406682 -0.000007
vn -0.913570 0.406682 -0.000007
vn -0.000002 0.406683 0.913570
vn -0.000002 0.406683 0.913570
vn -0.000002 0.406683 0.913570
s off
g Hat:Pyramid
usemtl initialShadingGroup
f 4/1/1 3/2/2 2/3/3 1/4/4
f 68/5/5 6/6/6 5/7/7
f 10/8/8 65/9/9 8/10/10
f 66/11/11 12/12/12 11/13/13
f 67/14/14 15/15/15 14/16/16
f 22/17/17 21/18/18 18/19/19 17/20/20
f 21/21/21 20/22/22 19/23/23 18/24/24
f 20/25/25 15/15/26 16/26/27 19/27/28
f 2/28/29 22/29/30 17/30/31 1/4/32
f 1/31/33 28/32/34 23/33/35 4/34/36
f 28/35/37 27/36/38 24/37/39 23/38/40
f 27/39/41 26/40/42 25/41/43 24/42/44
f 26/43/45 12/12/46 13/44/47 25/45/48
f 32/46/49 16/47/50 14/48/51 31/49/52
f 12/50/53 34/51/54 29/52/55 11/53/56
f 34/54/57 33/55/58 30/56/59 29/57/60
f 33/58/61 32/59/62 31/60/63 30/61/64
f 38/62/65 6/6/66 7/63/67 37/64/68
f 3/65/69 40/66/70 35/67/71 2/68/72
f 40/69/73 39/70/74 36/71/75 35/72/76
f 39/73/77 38/74/78 37/75/79 36/76/80
f 44/77/81 7/78/82 5/79/83 43/80/84
f 15/81/85 46/82/86 41/83/87 14/84/88
f 46/85/89 45/86/90 42/87/91 41/88/92
f 45/89/93 44/90/94 43/91/95 42/92/96
f 50/93/97 3/2/98 4/94/99 49/95/100
f 51/96/101 50/97/102 49/98/103 48/99/104
f 10/8/105 52/100/106 47/101/107 9/102/108
f 52/103/109 51/104/110 48/105/111 47/106/112
f 56/107/113 10/108/114 8/109/115 55/110/116
f 57/111/117 56/112/118 55/113/119 54/114/120
f 6/115/121 58/116/122 53/117/123 5/118/124
f 58/119/125 57/120/126 54/121/127 53/122/128
f 62/123/129 8/124/130 9/125/131 61/126/132
f 63/127/133 62/128/134 61/129/135 60/130/136
f 11/131/137 64/132/138 59/133/139 13/134/140
f 64/135/141 63/136/142 60/137/143 59/138/144
f 19/139/145 32/59/146 33/140/147 18/24/148
f 19/141/149 16/26/150 32/142/151
f 33/58/152 27/36/153 28/143/154 18/24/155
f 17/144/156 18/19/157 28/145/158
f 1/146/159 17/30/160 28/145/161
f 33/58/162 34/51/163 26/147/164 27/148/165
f 34/51/166 12/149/167 26/150/168
f 37/151/169 7/63/170 44/152/171
f 22/29/172 35/67/173 36/76/174
f 22/29/175 2/3/176 35/72/177
f 22/17/178 36/153/179 45/154/180 21/155/181
f 20/25/182 21/18/183 45/154/184 46/156/185
f 15/15/186 20/157/187 46/156/188
f 37/158/189 44/90/190 45/154/191 36/76/192
f 40/66/193 3/159/194 50/160/195
f 57/111/196 58/116/197 38/161/198 39/162/199
f 58/116/200 6/163/201 38/164/202
f 40/69/203 51/104/204 57/165/205 39/162/206
f 52/100/207 10/166/208 56/167/209
f 40/66/210 50/168/211 51/169/212
f 52/103/213 56/112/214 57/165/215 51/169/216
f 25/170/217 59/171/218 60/137/219 24/42/220
f 25/172/221 13/44/222 59/138/223
f 61/173/224 9/125/225 47/106/226
f 23/174/227 49/98/228 4/34/229
f 60/175/230 48/176/231 49/98/232 24/42/233
f 23/174/234 24/37/235 49/95/236
f 60/175/237 61/173/238 47/101/239 48/99/240
f 63/127/241 30/177/242 42/87/243 54/114/244
f 43/178/245 53/179/246 54/121/247 42/92/248
f 31/180/249 41/181/250 42/87/251 30/61/252
f 31/182/253 14/48/254 41/88/255
f 64/135/256 29/183/257 30/56/258 63/184/259
f 64/132/260 11/185/261 29/57/262
f 55/186/263 62/128/264 63/187/265 54/114/266
f 55/188/267 8/109/268 62/189/269
f 43/190/270 5/79/271 53/122/272
f 65/9/273 9/191/274 8/10/275
f 7/192/276 68/193/277 5/7/278
f 13/194/279 66/195/280 11/13/281
f 16/196/282 67/197/283 14/16/284
